<svg version="1" xmlns="http://www.w3.org/2000/svg" width="522.667" height="522.667" viewBox="0 0 392.000000 392.000000"><path d="M205.6 55.6c-.3.8-.2 1.3.3.9 2-1.2 4 .7 3.7 3.4-.3 2.6 0 2.8 3 2.6 1.8 0 3.6-.4 3.9-.8.3-.4.2-.5-.1-.3-.3.2-1.8-.8-3.4-2.2-6.3-5.8-6.5-5.9-7.4-3.6z"/><path d="M193 57.5c0 1.3-.4 1.4-2 .5-1.5-.8-2-.8-2 .2 0 .9-.3.9-1-.2-.9-1.3-1-1.3-1 0-.1 2.5-3.4 6.1-5.8 6.3-1.5.1-2.1.6-1.7 1.5.6 1.7-1.3 4.4-2.5 3.7-.5-.3-1.2.4-1.5 1.5-.4 1.2-1.4 2-2.3 1.8-1.6-.3-7.5 4.2-6.6 5.1.3.3.9-.1 1.3-.8.5-.7 1.5-1.1 2.2-.9.9.4.4 1-1.4 1.8-1.9.9-2.4 1.6-1.5 2.1.9.6.4 1.8-1.8 4.6-1.7 2.1-3.9 5.3-4.8 7.1-1 2-2.3 3.2-3.3 3-.9-.2-1.8.3-2.1 1.1-.3.9 0 1.2 1 .9 1.1-.5 1.4 0 1 1.8-.2 1.3-.8 2.4-1.2 2.4-.4 0-1.1 1.5-1.4 3.3-.3 1.9-1.5 4.3-2.5 5.4-1.1 1.2-2.1 4.2-2.5 7.5-.4 3.1-1.6 7.4-2.6 9.6-1.1 2.3-1.7 4.7-1.4 5.5.9 2.4-1.4 9.2-4.1 12.1-2.2 2.4-2.3 2.9-1.1 4.9.7 1.2 1.4 4.6 1.5 7.6.2 4.9.1 5.3-1.6 4.6-1-.4-2.5-.8-3.5-.9-2.2-.3-4.8-2.5-4.8-4.2 0-.8-1.2-1.9-2.7-2.5-1.6-.7-4.6-2-6.9-3.1-2.2-1.1-4.7-2-5.5-2.1-.8-.2-1.9-.5-2.4-.9-.6-.3-3.9-1.4-7.5-2.4-4.8-1.2-10.7-1.7-22.5-1.8-15.9-.1-21.6.7-29.2 4-1.7.8-4.1 1.4-5.2 1.4-3.2 0-3.9 3-1.2 5.2 1.3 1 3.1 1.8 4 1.8 2.7 0 6 4.4 4.9 6.4-.6 1-.5 1.6.2 1.6.6 0 .8.4.5 1-.3.5-.2 1 .4 1 .5 0 1.1-.6 1.3-1.2.6-1.6 3.9 3.4 4.1 6.1.1 1.2.4 2.1.8 2.1s1 1.4 1.4 3.1c.4 1.7 1.7 4.7 2.8 6.7 1.2 1.9 2 4.8 1.9 6.4-.1 1.6.4 5.8 1.3 9.4 1.7 7.3 2.3 12.7 2.9 26.4.3 5.3 1 10.9 1.6 12.5 1.2 3.1 1.9 8.1 4 29 1.6 15.8 2.4 19.4 4.9 21.2 1.2.8 2.1 2.2 2.1 3.2s.9 2.6 2 3.6 2 2.4 2 3c0 3 10.2 13.1 12.1 12 .4-.3.6.2.5 1.1 0 .9.8 2.1 1.9 2.8 1.1.6 2.4 1.7 2.8 2.3.4.7 1.6 1.3 2.6 1.3 1.1 0 2.2.7 2.5 1.6.4 1 1.2 1.4 2.3 1 1-.4 2.5.2 3.9 1.5 1.7 1.6 3.8 2.3 7.6 2.4 2.9.2 9 .7 13.4 1 9.4.9 12.6.3 15.3-2.6l2-2.1-.6 2.2c-.5 1.8-.3 2.1 1.3 1.7 2.1-.6 9-1.5 17.8-2.2 6-.5 12.6-2.4 12.6-3.5 0-.8 4.6-3 6.2-3 .7 0 .8 1.3.4 3.8-1.7 9.6-3.6 27.9-4.1 39.2-.3 6.9-.8 17.3-1.1 23.2l-.6 10.8h6.6c3.6 0 6.8-.5 7.2-1.1 1.5-2.6 2.9-79.5 1.4-80.4-.6-.4-1.3.1-1.6 1-.4.9-1.3 1.4-2 1.1-.8-.3-1.4-.1-1.4.5s-.6.7-1.2.2c-.7-.4-2-.6-2.9-.5-2.6.4-3.1-2.6-.6-3.4 1.2-.5 2.6-.7 3-.6.5.1.4-.5-.1-1.4-1.1-2 .8-9.4 2.5-9.4 1.9 0 3.1 3.1 2.7 6.7-.3 2.8 0 3.3 1.7 3.3 1.1 0 1.8.4 1.5.8-1.7 2.8 11.6 10.4 20.1 11.7 1.2.2 5.3 1.1 9 2 4.7 1.2 10.8 1.7 19.5 1.7 11.4 0 13-.2 15.4-2.1 1.4-1.1 3-1.8 3.5-1.5.5.3.9 0 .9-.6 0-.7-.7-1-1.5-.6-.8.3-1.4.2-1.2-.2.1-.4-.5-1.5-1.3-2.3-1.2-1.3-1.7-1.4-2.5-.3-1.3 1.7-5.8 2.5-7.6 1.2-1.2-.8-1.2-1 0-1.5.7-.3 2.1-1.4 2.9-2.4 1.8-2.1 6.7-2.6 7.7-.8.5.6 1.3.3 2.2-1 .8-1.2 1.9-1.9 2.4-1.6.5.4.9.1.9-.4 0-.6-.7-1.1-1.5-1.1s-1.5.4-1.5 1c0 .5-1.8.9-4 .7-2.2-.1-4-.5-4-1 0-.4.6-.7 1.4-.7.7 0 1.9-.7 2.6-1.5 1-1.2 1-1.5-.4-1.5-.9 0-1.6.4-1.6 1 0 .5-.7 1-1.5 1-2.2 0-1.8-1.8.5-2.5 1.1-.3 2-1.4 2-2.3 0-1.3.2-1.3 1.4.4.8 1 1.8 1.6 2.2 1.1.4-.4.2-.7-.4-.7-.7 0-1.2-.4-1.2-.9 0-.6 1.2-.6 2.9-.1 2.7.7 2.9.6 3.5-2.3l.6-3.1 1.6 2.3c1.2 1.6 2.3 2.2 4 1.8 1.3-.2 2.4-.1 2.4.4 0 .4-.7.9-1.6 1.1-1.3.3-1.3.5.1 2.3.9 1.1 1.4 1.4 1 .8-.4-.8 0-1.3 1.1-1.3 1.4 0 1.4.3.4 1.5-.7.9-1.9 1.4-2.7 1.1-1.3-.5-1.7.5-1.4 3.1.1.7-.3 1.3-.9 1.3-.6 0-.9-.4-.6-.9.3-.5-.1-1.4-.9-2.1-1.3-1.1-1.5-.9-1.3 1.1.2 1.5-.2 2.3-.9 2.2-.7-.2-1 .4-.7 1.2.4.8 1.1 1.2 1.7.8.5-.3.7-.2.4.4-.4.6-1.8.9-3.2.8-1.4-.2-2.5 0-2.5.3.1 1.2 3 4.6 3 3.5 0-.7 1.8-1.9 4-2.9s4-2.3 4-3c0-.7 1.2-1.4 2.6-1.6 1.5-.2 3.2-1.1 3.8-2.2 1.1-1.7 2.1-3 9.2-10.7 3.9-4.1 8.4-13.3 8.4-16.9 0-1.4.5-3.1 1-3.6 1.1-1.1 2.7-8.7 3.5-16.4 1.9-17.5 5-38.3 6.8-44.6.9-2.8 2.7-7.6 4-10.5 1.4-3 2.9-6.7 3.3-8.2.3-1.6 1.3-3.1 2.1-3.4.7-.3 2.1-1.9 2.9-3.5 1.4-2.7 6.3-5.7 10.3-6.3.8-.1 1.6-.6 1.8-1.2.2-.6 1.4-.8 2.7-.6 1.6.3 3.3-.6 6-3.2 2.1-2 4-3.4 4.3-3.1.7.6 6.3-3.2 6.3-4.3 0-.4-1.4-.5-3.1-.3-2 .3-3.4 0-4-.9-.6-.9-1.2-1-1.6-.4-1.5 1.9-5.5 3.6-7.3 3-1.3-.4-2 0-2.5 1.6-.7 2.2-.8 2.2-2.2.3-1.1-1.5-1.6-1.6-2.2-.6-.7 1.1-.9 1.1-1.4-.2-.4-.9-1.7-1.6-2.9-1.6-2.3-.1-2.3-.1.2-1.5 2.2-1.2 2.1-2-.2-1.6-.5 0-.8-.6-.8-1.5 0-1.1.6-1.4 2-.9 1.5.5 1.8.3 1.4-.9-.4-1 .2-1.7 1.9-2.1 1.3-.4 2.9-1.7 3.6-3.1.6-1.3 1.4-2.4 1.8-2.4 1.6 0 3.7 1.9 3 2.7-.5.4-1.2.1-1.7-.7-.8-1.2-1-1.2-1.5.2-1 2.6.4 4.1 2.1 2.3 2.5-2.5 8.8-1.6 7.7 1.1-.3.8 0 1.4.6 1.4s1.1-.8 1.1-1.8c0-1.4.2-1.5 1-.2s1 1.3 1 0c0-1 .3-1.1 1.1-.3 1.4 1.4.3 3.4-1.6 2.7-1.2-.5-1.2-.1-.2 1.9.8 1.7 1.5 2.2 2.3 1.6.6-.5 1.4-.5 1.9-.1.4.4.4-.4 0-1.8-.8-2.4-.8-2.4 1.9-.7 3.6 2.4 3.3.7-.6-2.9-4.1-3.7-8.3-6.4-10.1-6.4-.8 0-2-.7-2.7-1.5-.7-.8-1.6-1.2-2.1-.9-.5.3-.9.1-.9-.4 0-1.6-19.3-8.6-20.5-7.4-.2.3-2.8.7-5.7.9-2.9.2-5.6 1-6 1.6-.6.9-.8.8-.8-.2 0-2.1-5-.4-7.2 2.4-1.8 2.3-4.8 2.5-4.8.3 0-.5.5-.6 1.2-.2.7.5.8.3.3-.6-.6-1-1.1-.9-2.3.6-.9 1.2-1.6 1.5-1.9.7-.3-.8-1.8-.6-5.1.9-4.5 1.9-17.1 7.7-22.1 10.1-2 1-5.8 8.3-4.8 9.3.1.2 2.7-.8 5.6-2.2 2.9-1.4 5.5-2.3 5.8-2.1.2.3 1.3-.3 2.4-1.4 1-1 2.8-1.9 3.8-1.9 1.1 0 2.3-.5 2.6-1 1-1.6 2.5-1.2 1.9.5-.8 2-.2 1.9 2.4-.4 1.2-1 1.9-2.1 1.5-2.5-.3-.3-.1-.6.5-.6.7 0 2.1-.9 3.3-2.1 1.4-1.4 2.4-1.7 3.3-1 .7.6 1.7.6 2.6.1 1.3-.9 1.3-1 0-1s-1.3-.2-.1-.9c.9-.6 1.9-.4 2.8.5 1.6 1.6 3.3 1 3.3-1.2 0-.8.7-1.4 1.5-1.4.9 0 1.2-.6.8-1.7-.6-1.5-.5-1.6.9-.3 1.3 1.3 1.3 1.6-.5 3-1.8 1.5-1.8 1.6-.1 3 1 .8 1.5 1 1.1.4-1-1.7 4-1.4 5.4.2.9 1.1.8 1.4-.1 1.4-.8 0-1.1.3-.7.6.3.3 1.1.3 1.7-.1.8-.5.7-1.4-.4-3.1-.9-1.3-1.6-3.1-1.5-4.1 0-1.4.2-1.3.9.5.5 1.2 1.6 2.5 2.5 2.8.8.4 1.5 1.4 1.5 2.4 0 2 1.7 3.6 2.7 2.6.3-.3 0-1.2-.7-2.1-1-1.2-.9-1.6.6-2.2 1.2-.4 2.2 0 3.2 1.5 1.7 2.6 3.7 2.8 4.6.6 1-2.6.6-3-.9-1-.8 1.1-1.8 1.6-2.2 1.2-.4-.4 0-1.2.9-1.7 1-.5 1.6-1.5 1.4-2.2-.1-.6-.1-.9.1-.4.3.4.9.5 1.4.1.5-.3.9.4.9 1.5 0 1.2.5 2.1 1.1 2.1.6 0 .8-.9.4-2-.5-1.6-.2-2 1.9-2 1.4 0 2.8.4 3.1 1 .3.5.1 1-.4 1-.6 0-1.1.6-1.1 1.4 0 .7-1.3 1.6-3 1.9-2.1.5-2.8 1.1-2.4 2.1.8 2-3.2 1.3-5.6-.9-1.7-1.5-1.8-1.5-1.6.1 0 .9-.7 1.8-1.6 1.9-1 .2-1.8-.1-1.8-.6 0-2.3-2-.6-3 2.6-.7 2.1-1.8 3.5-2.8 3.5-1.4 0-1.4.2-.3.9 2.2 1.4 4.6.6 4.3-1.4-.3-1.3.1-1.6 1.2-1.2 1.1.4 1.6.1 1.7-1.1 0-1 .3-1.2.6-.5.2.7 1.1 1.3 1.9 1.3.8 0 1.4.5 1.4 1.1 0 .6.7.8 1.6.5 1.2-.5 1.5-.2 1 1-.3.8-.6 2.1-.7 2.7 0 .7-.4.2-.9-.9-1-2.6-5.5-2.2-7.1.7-.8 1.5-1.4 1.7-2.9.9-2.4-1.3-3.3-1.3-2.5 0 .3.5-.1 1-.9 1-2.1 0-.9 3 1.3 3 1.2.1 1 .5-.9 2-1.4 1.1-3.2 2.6-4 3.4-1.3 1.3-9.8 1.6-13.5.5-.5-.2-2 .2-3.1.9-1.7.9-2.4.9-3.3-.1-.7-.9-4-1.4-9.5-1.5-8.5-.2-8.6-.2-10.8 2.9-1.3 1.7-3.6 3.8-5.3 4.6-3.5 1.9-8.2 6.6-9 9.3-.3 1.1-1.7 2.8-3.1 3.9-1.3 1-2.4 2.2-2.4 2.7 0 .4-.6 1.5-1.4 2.3-1.6 1.9-2.9 8.1-1.7 8.1.4 0 1.6-1.7 2.5-3.8 1-2.1 2.6-4.3 3.7-5 2.4-1.5 2.5-.2.2 1.9-1 .8-3.4 6.3-5.3 12.2-2.4 7.4-3.9 10.7-5 10.7s-1.2.2-.2.8c1 .7 1 1.4-.3 3.8-1.9 3.7-1.9 5.8 0 7.4 1.2 1 1.5.7 2.1-1.7 2-8.7 9.4-26.2 12-28.4.8-.6 1.3-.5 1.8.6.3.8.2 1.5-.2 1.5-.9 0-4.9 7.8-5.6 11.2-.3 1.4-.9 3.3-1.2 4.2-.5 1.2-.1 1.5 1.5 1.3 2.5-.4 5.3-2.7 3.3-2.7-1.5 0-.6-4.7 1.3-7 .6-.8 2.2-3.7 3.4-6.4 1.2-2.6 2.5-4.6 2.8-4.2 1 1 .9 8-.1 9.5-.6.7-1.2 3.4-1.3 6-.2 4.2-.1 4.4 1 2.1.6-1.4 1.4-2.7 1.7-3 .3-.3.7-1.4.8-2.5.2-1.1.8-2.4 1.3-2.9.5-.6.9-1.8.9-2.8 0-2.5 4-9.9 5.1-9.3.9.6.1 3.5-1.1 3.5-1.1 0-4.3 12-3.4 12.8.4.4.9.1 1.1-.6.3-.7 1.1-1.9 1.9-2.7.8-.7 2.7-4 4.2-7.2 2.8-6 10.1-18.3 10.7-18.3.6 0-2.8 7.2-4.8 10.1-2.7 4-6.7 14.6-6.7 17.6l.1 2.8 1.3-2.5c.8-1.4 1.3-2.7 1.1-3-.6-1 4-9.3 5-8.9.6.2.9 2.2.7 4.4l-.3 4 1.8-2.8c1-1.5 2.4-2.7 3.3-2.7 1.2 0 1.2-.2.2-.9-1.1-.7-1.1-.9.2-1.4.9-.4 1.6-1.3 1.6-2.2 0-.8.4-1.5.9-1.5s-.1 2.5-1.2 5.6c-1.4 3.7-2.3 5.1-2.8 4.2-.5-.7-.9-1.1-.9-.8-.1.3-.3 2.7-.6 5.5-.7 7.8-.8 8.5-1.4 8.5-1.5 0-1.9-1.4-.7-2.8 1-1.3.9-1.5-.6-.9s-1.6.4-.7-1.3c.8-1.6.8-2-.4-2-.8 0-1.8.9-2.1 2.1-.4 1.3-1.2 1.8-2.2 1.5-1-.4-1.3-.2-1 .8.4.9-.5 3.6-1.9 6.1-1.4 2.5-2.2 4.5-1.9 4.5 1 0 5.5-4.9 5.4-5.8-.3-2 .3-2.3 1.8-1.1 1.1 1 1.4 1 .9.1-.4-.7-.1-1.2.9-1.2.8 0 1.8.7 2.1 1.5.4.8 1 1.3 1.4 1 .4-.3 1 .4 1.3 1.5.3 1.1.1 2-.5 2-.5 0-.6.4-.3 1 .3.5 0 .7-.8.4-.8-.3-2 .2-2.7 1.1-1 1.2-1 1.5 0 1.5s1 .3 0 1.5c-.6.8-.8 2-.4 2.6.5.8.3.9-.6.4-.7-.4-1.6-.2-2.1.6-1.3 2-1.1 3.1.4 2.2.6-.4 1.7-.8 2.2-1 .6-.1 2-.5 3.2-.9 1.6-.4 2.5-.1 2.9 1 .3.9 1.2 1.6 2 1.6s1.4.9 1.4 1.9c0 1 .6 2.1 1.4 2.4 1 .4 1.4 0 1.1-1.4-.2-1 0-1.9.4-1.9.5 0 .9-.6.8-1.3-.1-3.9.5-5.5 2.3-6 2.2-.6 2.1-.9 2.3 8.5.1 5.6 1.7 7.3 1.7 1.8 0-2 .8-3.5 2.5-4.6 1.4-.9 2.5-2.4 2.5-3.3-.1-1.4-.2-1.4-1.1.1-.5 1-1.4 1.8-1.9 1.8s-.2-1.3.7-2.8c.9-1.6 2.2-2.9 3-2.9 1.5 0 1.8 4.3.3 5.2-.6.4-.8 1-.5 1.5.3.5.1 1.2-.5 1.5-.6.4-.8 1.6-.4 2.7.4 1.3.1 2.4-.7 2.9-1 .6-1.1.9-.1.9 1.6 0 1.6 4.7 0 5.2-.7.3-1.3 2.7-1.5 5.9-.1 3-.9 7.4-1.7 9.8-1.9 5.2-9.4 15.8-11.9 16.6-.9.4-1.5 1-1.2 1.5.3.5-.5 1.8-1.7 3-1.6 1.4-2.4 1.7-2.7.8-.2-.6.1-1.4.8-1.6 2.2-.7.1-1.9-2.9-1.6-2.5.3-3 0-3-1.8 0-1.2-.3-1.8-.6-1.5-.4.3-1.6.2-2.7-.4-1.4-.8-1.8-.8-1.3 0 .4.6.3 1.1-.1 1.1-.5 0-1.3 1-1.8 2.2-.6 1.2-1.7 2.3-2.5 2.6-1.2.3-1.2.2-.1-.6 1.1-.8 1.1-1 0-1.4-1-.3-.7-1.1 1-2.9 2.2-2.3 5.6-7.9 4.8-7.9-1.1 0-4.5 3.8-4.8 5.3-.2 1-.8 1.7-1.4 1.5-.5-.2-.9-1-.7-1.8.2-.8.4-2.2.6-3 .1-.9.5-2 .8-2.6.4-.6.4-2 .1-3.3l-.6-2.2-1.6 2.3c-.9 1.3-1.4 2.7-1.3 3.3.2.5-.2.4-.9-.2-1.1-1.1-.9-2.3.8-6.3 1.4-3.4 1.7-5 .9-5-1.8 0-4.8 4-4.2 5.6.4 1-.2 1.4-2 1.4-1.4 0-2.3.4-1.9.9.3.5 0 1.3-.6 1.7-.6.3-1.5.1-1.9-.5-.5-.9-1-.8-2 .4-1.1 1.3-1 1.5.4.9 2.2-.8 2 .2-.5 2.9-1.8 2-1.9 2-1.3.3.7-1.9.5-1.8-2.4.3l-3.2 2.3 2.1-3.6c1.1-2 2.5-3.6 3-3.6s.9-.6.9-1.4c0-.8 1.1-2.4 2.6-3.5 1.4-1.1 2.5-2.2 2.5-2.5-.3-3 .1-3.8 1.5-3.2 1.4.5 1.5.4.4-.9-.7-.8-.8-1.5-.3-1.5 1.5 0 3.5-6.3 2.2-7.1-.7-.4-.4-.9 1-1.4 1.1-.3 2.1-1.3 2.1-2 0-.8.9-1.9 2-2.5 1-.6 1.7-1.6 1.5-2.3-.7-1.9 2.1-11.2 3.3-11 .6.2.9-.4.6-1.2-.9-2.2-1.8-1.8-3.2 1.5-.8 1.7-1.7 2.8-2.1 2.6-.4-.3-.8.5-.8 1.6-.2 2.8-2.1 4.7-3.1 3.2-.5-.9-1.1-.8-2 .2-1.1 1.2-.9 1.4.8 1.4 1.1 0 2 .4 2 .9 0 2.4-8.1 16.6-10.5 18.3-.5.4-1 1.2-1 1.7s-.8 1.8-1.8 2.8c-.9 1-2.5 2.8-3.5 4.1-2.3 3.1-5.2 2-5.2-2 0-2.3.4-2.9 1.8-2.6.9.2 1.6 1 1.4 1.6-.1.7.2 1.2.7 1.2 1.3 0 2.2-2.8 1.1-3.5-.6-.4-.3-1.7.6-3.1 2.7-4 .8-3.9-3.4.2-2.1 2.2-5.6 5.3-7.8 7.1-3.3 2.7-4 3-4.7 1.7-.7-1.2 0-2.3 2.4-4.4 1.9-1.5 3.7-2.6 4-2.4.4.2 1.3-.4 2-1.4 1.1-1.4 1.1-1.5-.1-.5-1.1 1-1.7 1-3.1-.3-1.3-1.2-1.9-1.2-2.5-.3-.4.8-.3 1 .4.5 2.3-1.4 1.1 1-2.5 4.8-2.8 3-4.6 4.1-7.2 4.3-2.2.1-4.3 1.1-5.3 2.4-1.7 2.1-1.8 2.1-1.8.1 0-1.1-.7-2.5-1.5-3.2-1.1-.9-1.2-1.7-.4-3.2.8-1.4 1.4-1.7 2.4-.8.9.8 1.4.6 1.9-.5.9-2.4 2.5-.9 1.8 1.7-.4 1.7-.2 2 1.2 1.5 1-.4 2-.7 2.2-.7.3 0 0-.8-.5-1.9-.9-1.6-.7-1.7 1.4-1.3 1.7.3 2.5 0 2.5-1s-1-1.4-3-1.3c-1.7.1-3.3-.2-3.6-.6-.2-.5-1.1-.6-1.9-.3-1 .4-1.2 0-.8-1.5.4-1.7.1-2.1-2.1-2.1-2 0-3 .8-4.3 3.5-2.1 4.5-3 4.5-2.5 0 .4-3.7-1.5-7.5-2.8-5.5-.8 1.4-7-1.9-7-3.8 0-1.6 1.5-1.5 3.3.2 1.1 1.1 1.7 1.2 2.6.3.8-.8 1.4-.8 2.2 0 1.7 1.7 3.7-.6 3.4-3.8-.4-3.9-.5-4-1.5-3.4-.5.3-1 .1-1-.6 0-2.1-1.2-.2-2 3.3-.8 3.2-.8 3.2-.9.5-.1-1.5-.8-3-1.6-3.3-1.9-.8-2-2.4-.1-2.4s2.3-1.7 1.6-7l-.5-4.5-.7 3.5c-.3 1.9-.2 4 .3 4.6.6.8.5 1.4-.4 1.7-2.6 1-3.6-.9-3.9-7.2-.5-10.3-2.4-8.6-2.7 2.4-.1 6.2.1 9.5.8 9.5.6 0 1.1-.9 1.1-2s.5-2 1.1-2c.6 0 .8.7.5 1.6-.3.9-.6 2.5-.6 3.7 0 1.8-.2 1.9-1 .7-1.7-2.6-2.7.5-2.9 9.3-.1 4.5-.7 8.6-1.2 9.2-.6.6-1-.1-.9-2 0-1.7-.3-7.2-.6-12.4-.5-7.1-.3-9.5.6-10.1 1-.6 1-1.2-.3-2.5-1-.9-1.7-1.9-1.7-2.3 0-1.4 1.7-3.4 2.6-3 .5.1 1-1.2 1.2-3.1.2-2 0-3.1-.7-2.7-.5.4-1.9-.3-3-1.5-1.5-1.7-1.8-2.6-1-3.5.6-.8.9-4.4.7-8.9-.2-4.1 0-7.5.3-7.5.7 0-1.3-6.5-2.3-7.5-.3-.3-.3 3.4-.1 8.1.5 9.1-.1 13.4-1.7 13.4-.6 0-1-.9-1-1.9 0-1.1-.5-2.3-1-2.6-.7-.5-1 1.4-.8 5.4.3 6.1 1.8 8.7 1.8 3.1 0-4.1 1.7-3.8 2.2.4.5 4.6 0 6-1.8 4.5-1.1-.9-1.5-.8-1.9.5-.3.9-.7 2.3-1 3.1-.2.8-.1 1.5.4 1.5s.9 2.5 1 5.6c0 3.4-.3 5.3-.9 4.9-.6-.3-1-1.7-1-3s-.5-2.7-1.2-3.1c-.8-.5-.9.7-.5 4.6.6 5-.3 8-2.3 8-1.1 0-.9-10.2.2-12.5.6-1.1.7-1.6.2-1.2-.4.4-1.3-.2-1.9-1.3-1.1-2-1.2-2-2.6-.4-1.2 1.6-1.2 1.7.1.9 1.2-.7 1.1-.3-.3 1.8-.9 1.5-1.4 2.7-1 2.7.4 0-.1.6-1 1.2-1.5 1.2-1.5 1.9-.3 7.8.8 3.6 1.2 6.7 1.1 6.8-.2.2-1.1-1-2-2.7-.8-1.7-1.3-3.1-.9-3.1.3 0-.8-1.6-2.5-3.6-1.9-2.1-2.8-4-2.4-4.7.4-.7.8-2.4.9-3.9.1-1.9-.3-2.5-1.3-2.1-1.2.5-1.2.7-.1 1.4 1 .7.8.9-.6.9-1.3 0-1.7-.5-1.3-2 .3-1.1.1-1.8-.4-1.4-.5.3-.9 0-.9-.5 0-.6-.9-1.1-2-1.1s-2-.5-2-1.1c0-1.5 2.6-3.9 3.4-3.2.3.4.6-.4.6-1.6 0-1.7-.4-2.1-1.6-1.7-.8.3-1.2.2-.9-.4.6-1-.8-1.4-3.4-1-1.2.1-1.3-.1-.3-1.3 1-1.1 1-2.5.1-5.8-.6-2.4-1.1-5.2-1.2-6.1-.1-.9-.4-1.6-.7-1.5-.6.2-1-.8-1-2.4 0-.6.7-.8 1.6-.5 1.4.6 1.5.4.4-.9-1-1.2-1.5-1.3-2.1-.4-.5.8-1 .5-1.8-1-.7-1.2-.9-2.5-.6-3 .9-1.5-1.4-6.3-2.7-5.5-.8.5-.9 0-.6-1.4.4-1.2.2-2.5-.3-2.8-1.4-.8-1.1-4.6.4-3.9.6.4.4 0-.5-.8-2.4-1.9-2.3-2.7.5-2.8h2.2l-2.2-.9c-1.2-.5-2.2-1.7-2.2-2.7 0-1-.5-4.1-1.1-6.8-2.1-9-2.2-10.6-.8-12.3 1.1-1.3 1.1-1.5-.4-.9-1.2.4-1.9-.1-2.4-1.6-.7-2-.6-7.8.1-8.5.1-.1 3-.4 6.3-.6l6.1-.4-.6 3.1c-1 4.8-2.7 6.1-4.8 3.7-1.6-1.8-1.4-2.5.8-2.1.4 0 .7-.6.7-1.4 0-1.9-1.6-1.9-2.4 0-.3.8-1.5 1.5-2.6 1.5-1.3 0-1.8.4-1.5 1.1.4.6 1.2.8 1.9.6.7-.3 2.3 1 3.5 2.9 2.6 3.8 3.7 4.2 4.4 1.6.5-1.7.6-1.2 1.2 6.3.1 1.6.5 4 .9 5.2.4 1.3.3 2.3-.2 2.3-.9 0-2.5-3.7-2.3-5.3.1-.4-.3-.7-.8-.7-2.2 0-2.1 2.2.3 6.4 1.9 3.3 2.2 4.7 1.3 5.6-1 1-.7 1.1 1.4.7 2.5-.6 2.6-.4 4.2 7.1.9 4.2 1.9 10.1 2.3 13.1.3 3 1.4 7.3 2.4 9.5 1.7 4 1.7 4.1 2.9 1.7.7-1.3.8-2.1.3-1.7-.6.3-1.3.2-1.7-.4-1-1.5-1.4-10-.6-10 .9 0-1.5-10.7-3-13.3-.7-1.3-.7-2.3 0-3.1.6-.7.8-1.6.5-1.9-.9-.9-1.1-10.8-.2-11.3.5-.3.8.2.8 1 0 .9.5 1.6 1 1.6.6 0 1 .5 1 1.1 0 .5-.4.8-.8.5-.4-.3-.3 1.5.2 4 .6 2.4 1.4 4.4 1.8 4.4.5 0 .8.8.8 1.7.1 1.7.1 1.7 1.1 0 .8-1.4.7-2.3-.7-3.8-1-1.1-1.2-1.9-.6-1.9.8 0 1.2-2.9 1.2-9 0-5.5.4-9 1-9 .7 0 .7-.6 0-1.9-1.1-2.1-.9-4.8.3-6.9.5-.6.4-1.2-.1-1.2s-1.2-1-1.5-2.2c-.5-1.9-.4-2 .9-.6 1.8 1.7 2.1 3.4 2.9 16.3.5 9.1.4 9.8-.9 8-1-1.3-1.5-1.5-1.6-.6 0 .7 1.1 2.4 2.4 3.6 2.2 2.1 2.7 2.1 4.3.8 1-.8 1.3-1.2.7-.9-1.6.8-2.6-2.2-1.6-4.1.5-.8.6-3.3.2-5.4-.5-2.6-.4-3.9.4-3.9.7 0 .7-.3.1-.8-.5-.4-1.1-2.3-1.1-4.2-.1-1.9-.4-7-.7-11.3-.6-7.5-.6-7.7 1.6-7.6 1.2 0 1.7.3 1.1.5-1.4.6-.8 11.5.7 12.5.8.5.8.8 0 1.3-.6.4-.9 1.1-.6 1.6.3.4.7 3.6.9 7.1.5 6.8 1.3 9.9 2.7 9.9.5 0 .4-1.2-.1-2.6-1.3-3.4-1.3-4.4.3-4.4.9 0 1.1-1.8.7-7-.5-6.5.1-9 2.2-9 .4 0 .8.9.8 2.1 0 1.2.5 1.9 1.3 1.6.6-.2 1.1-1 1-1.6-.2-.6.2-1.1.8-1.1.5 0 .7-.5.3-1.2-.5-.8-.2-.9 1-.5 1 .4 2 .7 2.2.7.2 0 .4.5.4 1.1 0 .5-.4.7-1 .4-.5-.3-1 0-1 .9 0 .8-.6 1.7-1.2 2-.7.3-.1.3 1.5 0 2.1-.5 2.7-.2 2.7 1.1 0 1.5.2 1.5 1.6.4 1-.8 1.2-1.5.5-1.7-1.8-.6-1.2-2.2.8-2.2 1.3 0 2 .9 2.4 3.2.5 3.3-.2 5.4-1 3-.3-.6-.9-1.2-1.4-1.2-.6 0-.7.4-.4 1 .3.5.1 1.8-.4 2.7-.6 1-1.1 1.2-1.1.5 0-1.5-3-1.6-3-.1 0 .5.5.7 1 .4.6-.4 1 .5 1 2.1 0 2.1.3 2.4 1.3 1.5 1.1-.8 1.3-.6 1.2.9-.1 1.1-.4 2.3-.8 2.6-.4.4-.3 1.2.2 1.8 1.1 1.3.2 6.6-1.1 6.6-.5 0-.2.7.7 1.6.9.9 1.4 2.3 1.1 3-.3.8 0 1.4.6 1.4s.3.8-.6 1.9c-1.1 1.2-1.4 2.1-.7 2.6.6.3 1.1 2.2 1.1 4.1 0 1.9.5 3.4 1 3.4.6 0 .9-3.4.8-9-.2-5.5.1-9 .7-9 .7 0 .7-.3 0-.8-.5-.4-1-3.3-1-6.4 0-4.7.3-5.8 1.8-6.2 1.3-.3 1.7 0 1.3 1-.3.8 0 1.4.6 1.4.7 0 .8-1.2.3-3.8-.4-2-.7-4.8-.7-6.2 0-1.4-.6-5.2-1.3-8.5-2-9-2.8-21.5-1.5-21.5.6 0 1 .8.9 1.7-.1 1 0 2 .1 2.3.6 1.6 1.1 5.3 1.5 11 .2 3.6.5 6.5.6 6.5.4 0 1 4.8 1.1 8.7.1 2.7.5 4.8 1 4.8.4 0 .8 1 .8 2.2 0 1.2.3 1.8.7 1.4.4-.4.6-2.7.4-5.2-.1-2.5.3-5.2.9-6 .9-1 .9-1.4.1-1.4-.6 0-1.1-1.4-1.1-3.1 0-1.6.4-2.8.9-2.4.6.3 1 1.3 1 2.3 0 2.5 3 14.4 4.1 16.4.8 1.4.7 1.8-.5 1.8-1.7 0-2.1 1.6-.5 2.2.6.2 1.2 1.8 1.5 3.7.2 1.9.9 3.9 1.5 4.5.8.8.9-.2.5-3.9-.4-2.8-.7-5.5-.7-6 0-3.7 1.3-23.9 1.6-24.2.8-.8 1.8 11.6 1.1 13.8-.5 1.4-.4 1.9.4 1.5.6-.4 1.1-.2 1.1.3 0 .6-.4 1.1-.9 1.1s-1.1.9-1.4 1.9c-.3 1.3-.1 1.8.8 1.5 1.4-.6 2.5 3.2 2.3 7.6-.3 4.1 1.2 12 2.3 12 .5 0 .9-1.1.9-2.4 0-2.5 2.5-4.2 3.6-2.5.3.6.8 6.7 1 13.7.5 12.9 2.3 19.6 2.3 8.6 0-3.2.3-10.6.6-16.4.3-5.8.5-11.6.5-12.9 0-1.3.3-2.2.6-1.8.3.3.7 4 .8 8.2.1 5.4.6 7.9 1.6 8.6 1.1.6 1.2 1.1.4 1.6-.7.5-1.1 3.9-1.1 8.3-.1 4.1-.2 7.9-.3 8.5-.6 2.5.1 4.5 1.6 4.5.8 0 1.3-.3 1.1-.8-.2-.4 0-3.9.4-7.7.5-3.9.9-10.6.9-15 0-7.1-.2-8.2-2.2-9.7l-2.3-1.8h2.3c1.7 0 2.2-.6 2.2-2.4 0-1.3.3-3.2.7-4.2.4-1.2.3-1.5-.6-1-.8.5-1.1.3-1-.5.1-.8-.1-3-.5-4.9-.4-2.2-.2-5 .7-7.4 1.4-4.1 4-6.4 3-2.8-.5 2.2 1.1 3.7 2.8 2.6.8-.5.7-.9-.4-1.5-1-.6-1.3-1.7-.9-3.1.4-1.6.2-2-1-1.5-.9.3-2.1 0-2.8-.6-1-1-1.2-.7-.7 1 .3 1.3.1 2.6-.4 2.9-.5.3-.7 1-.4 1.5.4.5.2.9-.3.9-1.3 0-4.4-8.8-4.5-12.3 0-1.6-.3-2.4-.7-1.7-.7 1.1-2.1-.6-4.9-6.3-.8-1.5-2.1-2.7-2.9-2.7-1.9 0-5.2-3.8-5.2-6 0-.9-1.3-2.8-2.8-4.3-2.9-2.8-4.5-2.7-3.5.1.5 1.2.2 1.4-1.1.9-.9-.4-1.5-.3-1.1.2.3.5.1 1.2-.5 1.6-.5.3-1-.1-1-.9 0-1.9-2.6-2.2-3.2-.4-.3.8-.7.6-1.1-.5-.5-1.3.2-1.8 2.9-2.3 1.9-.3 3.7-1.1 4-1.6.7-1.1-2.5-7.8-4.4-9.4-.8-.5-1.5-2.2-1.5-3.6-.1-1.4-.5-2.4-.8-2.2-.4.2-1.4-.7-2.3-2.1-.9-1.3-1.2-2.6-.7-3 .5-.3 1.1.1 1.4.7.2.7.7 1 1.1.7.4-.4 0-1.4-.9-2.2-1.4-1.4-1.3-1.6.6-2.2 1.2-.4 1.7-1 1.1-1.4-.5-.3-1.1-1.5-1.3-2.5-.2-1.1-1.1-2.1-1.9-2.3-1.3-.4-1.3-.3 0 .6 1.2.8 1.2 1.3 0 3.5l-1.4 2.6-1.3-3.7c-1.8-4.8-3.4-11.1-3.8-14.3-.3-3.9-.4-4.2-1.4-3.5-.5.3-1.2.1-1.5-.4-.4-.5.2-1.2 1.1-1.4 1.3-.3 1.1-.5-.6-.6l-2.4-.1.6 9.5c.3 5.5.2 9.5-.4 9.5-.5 0-.9.7-.9 1.6 0 .8.5 1.2 1 .9 2.5-1.5 1.9 2.8-.9 7-1.7 2.5-3.1 5.2-3.1 5.9 0 .8-1.7 3.7-3.7 6.5-2.6 3.6-4.3 5-5.5 4.7-1-.2-1.8 0-1.8.5s-.7.9-1.5.9-2.1 1.2-2.9 2.7c-.8 1.6-3.3 4.5-5.5 6.6-2.3 2.1-4.1 4.4-4.1 5.1 0 .7-.7 2.8-1.6 4.6-1 1.8-2 5.8-2.4 8.9-.4 3.1-.8 5.1-.9 4.5 0-.6-1.2-1.6-2.6-2.2-2.4-1.1-3-.7-2.6 2 0 .3-1.3.4-3 .1-2.1-.3-2.9-.1-2.4.6.3.6.2 1.1-.4 1.1-.5 0-.9-.9-.8-2 .1-1.1.7-2 1.4-2 .6 0 1.4-.4 1.7-.9.4-.5-.2-.7-1.2-.4-1.1.2-1.9-.1-1.9-.9-.1-.7-.4-2.8-.8-4.6-.7-3.1-.6-3.2 2.4-3.2 1.7 0 3.1-.5 3.1-1.2 0-.6.3-.8.6-.5 1 1 4.4-1.2 4.4-2.8 0-1.7 5.8-4.7 7.4-3.8.6.3.2-.3-.8-1.5-2.5-2.9-3.2-2.8-5 .5-.9 1.7-1.5 2.2-1.6 1.2 0-.9.3-1.9.7-2.3 1.1-1 1.1-7.6.1-7-.4.3-.8 1.2-.8 2s-.5 1.2-1.1.8c-.6-.3-.9-1.5-.6-2.5.3-1.1.1-1.7-.3-1.4-.5.3-1.1-.1-1.3-.7-.3-.7-.6-.3-.6 1-.1 3.4-1.8 1.8-1.9-1.9 0-1.7-.3-3.3-.6-3.6-.3-.3.4-2.4 1.6-4.7 1.1-2.2 2-4.2 1.9-4.4-.8-1.4.2-3 1.7-2.5 1.4.5 1.5.3.5-.8-1.9-2-1.6-3.2.7-2.6 1.1.3 1.8.2 1.5-.3-.3-.4.3-1 1.3-1.3.9-.2 2.6-.8 3.6-1.3 1.4-.5 1.7-.4 1.2.4-.4.7-.4 1.2.1 1.3.4 0 1.6.2 2.5.4 1.6.3 1.6.1.1-2.1-1.6-2.6-3.3-3-4.9-1.4-.6.6-2.1 1.2-3.3 1.5-1.7.3-2.1.1-1.7-1.1.3-.9.6-1.9.7-2.2 0-.4.4.2.9 1.3.8 2 .8 2 1.6.1.5-1.3.3-2.1-.4-2.4-1.6-.5 1.2-6 4.6-9.1 1.5-1.3 2.1-2 1.4-1.6-1.7.9-1-2.9.9-5.2.8-1 2.1-3.1 2.7-4.6.7-1.6 1.8-2.7 2.5-2.4.7.2 1.8-.2 2.5-.9.8-.9.9-1.4.2-1.4-.6 0-.8-.5-.5-1 .4-.6 1.5-.8 2.6-.5 1.1.4 1.9.2 1.9-.5 0-.6-.4-.8-1-.5-3.5 2.2 2.5-4.3 14-15 2.4-2.2 4-3.4 3.6-2.8-.8 1.4.6 1.8 1.8.6.4-.4 1.7-.8 2.8-.8 1.2 0 2.3-.5 2.5-1.1.6-1.7-2.7-2.6-4.3-1.3-1 .8-1.4.8-1.4 0 0-.6-1.1-1.1-2.5-1.1-1.6 0-2.5.6-2.5 1.5zm7 61.5c0 .5 0 1.3.1 1.7 0 1-6 2.3-7.8 1.6-2.4-.9-1.4-2.5 1.2-1.9 1.4.4 2.5.3 2.4-.1-.3-1.8.2-2.3 2.1-2.3 1.1 0 2 .4 2 1zm6 17.1c0 .5-.4.9-1 .9-.5 0-1-.7-1-1.6 0-.8.5-1.2 1-.9.6.3 1 1 1 1.6zm-13.5 2.9c-.3.5-1 1-1.6 1-.5 0-.9-.5-.9-1 0-.6.7-1 1.6-1 .8 0 1.2.4.9 1zm-42.7 2.7c-.2 1.8.2 2.7 1 2.5.6-.1 1.2.6 1.2 1.6 0 1.1-.7 1.8-2 1.8-2.2 0-2.3-.7-1.4-5.5.8-3.8 1.7-4.1 1.2-.4zm30.9-.2c1.8 1.9 1.6 2.2-2 2.9-3.3.6-4.6-1.2-2.2-3.1 2.3-1.6 2.3-1.6 4.2.2zm18.4.2c1.1 1.3 1.1 1.7.2 2-.7.3-1.3 1.3-1.3 2.4 0 1-.4 1.9-.9 1.9s-.9-1.8-.8-4c.2-4.4.7-4.9 2.8-2.3zm17.9 1.8c0 2.5 1.4 3.3 2.5 1.5.3-.6 1.5-1 2.6-1 1 0 1.9.4 1.9 1 0 .5-1 1-2.2 1-1.9 0-2 .2-.8 1 1.1.8.7.9-1.5.4-3.6-.8-3.1-.3-3.9-3.7-.4-1.6-.2-2.7.4-2.7.5 0 1 1.1 1 2.5zm-59.7 0c.4.8.3 1.6-.1 1.9-.4.3-.9-.4-.9-1.5-.2-2.3.3-2.5 1-.4zm34.5 10.8c1.4 1.6 1.4 1.9.2 2.7-1.2.8-1.3 1.3-.3 2.9 1.4 2.3.9 3.1-1.7 2.4-1.7-.4-3.6-4.3-2.2-4.3.4 0 .7-3 .7-6.8-.1-8.4.9-11.6 1.3-4.2.2 3.3 1 6.2 2 7.3zm-20.1-9.7c-.3.3-1.2.4-1.9.1-.8-.3-.5-.6.6-.6 1.1-.1 1.7.2 1.3.5zM143 147c0 .5-.8 1-1.7 1-1.5 0-1.6-.2-.3-1 1.9-1.2 2-1.2 2 0zm-59 1.1c.3.1 1.3.1 2.3 0 1-.2 1.7.5 1.7 1.6 0 1.5.2 1.6 1 .3.8-1.2 1-1.1 1 .7 0 2.8 1.8 3.9 2.7 1.7.4-1 .2-1.9-.5-2.2-1.8-.6-.4-2.2 1.9-2.2 1.6 0 1.8.3 1 1.8-.5 1-1 3.7-.9 5.9 0 2.3-.2 4.6-.6 5.1-.3.5.1 1.2.9 1.6.8.3 1.7 0 2.1-.6.4-.7.3-.8-.4-.4-.8.4-1.2 0-1.2-1.1 0-2.6 1.1-3.9 4-4.8 2.1-.7 2.3-.6 1.2.7-1.3 1.6-1.3 1.6 5.8 2 4.4.2 8.9-1.3 8.3-2.8-.3-.7-1-1.2-1.5-1.1-.6.1-1.3-.4-1.5-1.1-1.1-2.9 9.6-.2 16.8 4.3 5.2 3.4 11.9 9.4 11.9 10.9 0 .6-.5.4-1-.4s-1-1.1-1-.5c0 .5 1.4 2.5 3 4.3 4.7 5.4 9.1 23.2 6.8 27.6-.7 1.2-.7 1.6 0 1.2 1.2-.7 3.6 5.9 2.9 7.9-.3.7.1 1.6 1 1.9.9.4 1.3 1.4 1 2.6-.3 1 .1 2.4.9 3.1.8.6 1.4 1.7 1.4 2.5 0 2.3 2.2 6.3 3.4 6 .6-.2.8-.1.4.1-1.4.8-.8 5.7 1.2 11.3 4.1 10.8 5 13.5 5 15 0 .9.8 3.2 1.9 5.3 1.5 3 1.6 4 .6 5.3-.8 1.2-1.4 1.4-1.9.5-.4-.6-1.1-.9-1.6-.6-1.8 1.1-6-1.6-8.6-5.5-1.5-2.2-3.5-4-4.5-4s-2.5-1-3.3-2.2c-.9-1.2-1.6-1.7-1.6-1 0 .8-.7 2-1.6 2.9-.8.9-1.2 2.3-.9 3.1.5 1.3.3 1.3-1.3-.1-1.7-1.5-2-1.6-2.5-.3-.6 1.5 1.2 2.6 4.5 2.6 1.2 0 1.8.3 1.5.7-.4.3-.2 1.2.4 2 .9 1 .8 1.3 0 1.3s-1 .8-.6 1.9c.3 1.1.1 2.2-.5 2.6-.6.3-.7 1.1-.4 1.7.5.7.1.9-.9.5-1.1-.4-1.4-.2-1 .9.7 1.8 2.2 1.8 2.9-.1.4-.8 1.4-1.5 2.3-1.5 1.3 0 1.8-.8 1.8-3 0-1.6-.4-2.7-.9-2.4-.4.3-.8-.2-.8-1 0-2.6 1.8-2.7 4.7-.2 2.1 1.9 2.5 2.7 1.6 3.6-.8.9-1.1.8-1-.5.1-1-.4-2-1-2.2-.9-.3-1.3.8-1.3 3.6 0 2.9.4 4.1 1.4 4.1.8 0 1.6-.5 1.8-1.2.7-2 5.8 0 5.8 2.2 0 1.1.4 2 1 2 .5 0 1.3 1.2 1.6 2.7.6 2.4.8 2.5 1.9.9.9-1.2 1.4-1.3 1.7-.5.3.9.9.9 2.3.2 2-1.1 3.1-6.8 1.5-7.8-.5-.3-.8 0-.7.7.2.7.2 1 0 .5-.3-.4-.9-.4-1.5-.1-.6.4-.6-.2.1-1.4 1.1-2.1-.2-4.2-1.4-2.2-.9 1.5-2.5 1.2-2.5-.4 0-1.3 1.9-1.5 6.1-.7 1.1.2 2.9 5.3 2.3 6.3-.4.6-.2.8.4.4.6-.3 1.3-.2 1.7.3.3.5-.3 1.5-1.2 2.1-1.7 1.1-1.7 1.1 0 .6 1.1-.4 2 0 2.3 1.2.3.9 1 2.4 1.5 3.2.5.8 2 3.6 3.4 6.2 2.5 4.7 2.5 4.8.5 4.8-1.1 0-4.1-2-6.6-4.5-2.4-2.5-5-4.5-5.7-4.6-.9 0-.9-.2 0-.5 1.6-.7.5-3.4-1.2-2.8-.7.3-1.2 1.3-1 2.2.2.9.4 2 .4 2.3.1.4.9.9 1.9 1.2 1.6.4 3.9 4.7 2.6 4.7-1.2 0-7.3-7.3-6.8-8.1.3-.5-.4-.9-1.5-.9-1.2 0-2.1-.5-2.1-1 0-.6-.4-1-1-1-2.1 0-.9 2.1 4.1 7 2.8 2.8 4.8 5.4 4.5 5.7-.3.4-.6.2-.6-.4 0-.6-.8-1.3-1.7-1.7-3-1-11.7-7.6-13.6-10.4l-1.9-2.7.8 2.5c.3 1.4 1.1 2.8 1.7 3.1 1.7 1.1-.2 2.7-2.6 2.2-2.7-.7-4.8-2.3-4.3-3.2.3-.4-.4-.7-1.4-.8-1.1-.1-2.2.2-2.5.8-.4.5.1.9.9.9 1 0 1.3.6.9 1.6-.6 1.5-.7 1.5-1.9-.1s-1.4-1.7-2-.2c-.3.9-1.1 1.4-1.7 1-.6-.3-.7-.1-.3.6.4.6 1.1.9 1.5.7.4-.3 1.8.8 3 2.4 1.2 1.7 2.8 3 3.6 3 .8 0 1.4.3 1.3.8-.3.8 5.3 6.7 6.4 6.7.8 0 3.4 2.5 2.6 2.5-.3 0-2.2-.7-4.3-1.6-2.5-1-3.5-2-3.1-2.9.3-.8.2-1.4-.2-1.4-1.9.3-3.3-.3-5.1-2.2-1.3-1.4-2.1-1.7-2.6-.9-.4.7.7 2.4 2.6 4.1 2.5 2.2 3 3.2 2.1 4.1-.8.8-2.1.4-4.9-1.8-2.1-1.5-4.4-3.4-5.1-4.1-1.7-1.7-2.2-1.6-2.2.2 0 .8.7 1.5 1.5 1.5s1.5.3 1.5.7c0 1.3 5.5 7.3 6.6 7.3.6 0 1.9 1 3 2.1 1 1.2 2.9 2.5 4.2 3 1.2.5 2.2 1.3 2.2 2 0 .6-.3.9-.7.7-.5-.3-2.3-1.1-4-1.8-1.8-.8-3.3-2-3.3-2.7 0-.7-.6-1.3-1.4-1.3-.7 0-1.9-.7-2.6-1.5-.7-.8-2-1.5-2.9-1.5-1.3.1-1.1.5.7 1.9 1.2 1.1 2.2 2.3 2.2 2.8s1.1 1.6 2.5 2.3c2.1 1.1 2.3 1.6 1.2 2.9-1 1.4-1 1.4.5.3 1.5-1.2 2-1.1 3.9.7 1.2 1.1 2.6 1.8 3.1 1.5.4-.3.8 0 .8.7 0 .6.7 1.7 1.7 2.4 2.9 2.2-.2 2.4-4.7.4-5.5-2.5-8.2-4.8-7.3-6.3.4-.6-.5-.3-2 .7-2.3 1.5-2.7 1.5-2.7.2 0-.8-.4-1.5-1-1.5-2 0 .3 2.9 4.6 5.6 5 3.2 5.4 4.1 2.2 4.9-3.7.8-16.8-1-16.8-2.4 0-.8-5.8-.6-6.7.2-1.1 1.1-2.3.8-2.3-.6 0-.7-1.6-2.1-3.5-3-1.9-.9-3.5-2.3-3.5-3.2 0-.8-.4-1.4-.8-1.3-1.2.4-8.2-6.4-8.2-7.9 0-.7-.6-1-1.2-.8-.8.3-2.3-1.3-3.6-3.7-2.2-4.1-2.2-4.1-.2-5.5 1.1-.8 2-2 2-2.7 0-.8.7-2 1.6-2.7 1.5-1.2 1.6-1.1 1 .9-.7 1.9-.4 2.2 2.3 2.2 1.7 0 3.1-.4 3.1-.9s-.8-.7-1.8-.4c-1.6.4-2.1-.5-3.1-4.4-.7-2.6-1.5-5.4-1.7-6.1-.2-.6.1-1.2.6-1.2.6 0 .9-1 .9-2.3-.1-1.6-.2-1.8-.6-.5-.2 1-1.1 1.8-1.8 1.8-1.1 0-1.3.8-.8 3.2.5 2.5.3 3-.8 2.4-.8-.4-.3.1 1 1.2l2.4 1.9-2.7.5c-1.8.4-2.6.1-2.6-.8 0-.8-.4-1.4-1-1.4-1.4 0-1.2 1 .5 4.4 1.8 3.4 1.7 3.7-1.4 2.9-1.7-.4-1.9-.8-.9-1.4 1-.7.8-.9-.6-.9-1.5 0-1.7-.3-.9-1.1 1.4-1.4.6-3.9-1.2-3.9-1.4 0-3.1-5.7-2.1-6.7.3-.3 1.2 0 2 .6 1.1.9 1.6.9 2.1 0 .8-1.2-1.1-2.9-3.2-2.9-.7 0-1.3-.7-1.3-1.6 0-1.1-.6-1.4-2.1-.9-1.5.5-1.9.4-1.5-.4.4-.6 1.3-1.1 2-1.1.8 0 1.6-.9 1.9-2.1.4-1.5 0-2.3-1.4-2.6-1-.3-1.9-1.2-1.9-2 0-1 .7-1.4 1.9-1 1.4.3 1.8.1 1.4-.9-.3-1-1.3-1.2-2.6-.8-1.5.5-1.9.3-1.4-1 .3-.8.2-1.8-.3-2.1-.6-.4-1-1.1-1-1.6 0-.6.4-.8.9-.5 1 .7 1-4.6 0-5.4-1-.7.1-6.1 1.1-5.5.4.2.5-.7.2-2-.2-1.4-.8-2.2-1.3-2-.4.3-.5 1.3-.2 2.3.3.9.2 1.4-.2.9-1.7-1.5-3.1-7.4-3.4-13.7-.1-3.6-.5-6.8-.7-7.2-.7-1.1.6-5.1 1.4-4.4.8.9 3.4-3.3 2.7-4.4-.7-1.2-2.6-1.4-2.4-.3.1.5 0 1.5-.1 2.3-.1.8-.6-1-1-4-.6-3.9-.5-5.7.3-6.2.7-.4.8-.8.2-.8-.6 0-1.6-1.4-2.2-3.1-1.4-3.7-.1-7.4 2.4-6.5.8.3 2.1.6 2.8.6.7 0 1.6 1.2 2 2.7 1 3.6 1.2 8.2.4 7.7-.4-.2-1.2.2-1.8 1-.9 1.1-.7 1.3 1.1 1.2 2.1-.1 2.3.3 2.3 4.9 0 4-.5 5.5-2.4 7.2-1.4 1.4-1.8 2.3-1.1 2.3s2.1-.7 3.1-1.6c1.6-1.4 1.7-1.1 2.2 4.3.4 3.2.6 6.7.7 7.8.3 6.1.5 7.5 1.2 7.5.4 0 .8.7.8 1.5 0 1.9-2.4 1.9-4 0-.7-.9-1.5-1.3-1.7-1.1-.7.7 3.8 5 6.2 6 1.3.5 1.6 1 .8 1.3-.7.3-1.3 2.1-1.3 4 0 3 .3 3.5 2 3 1.1-.3 1.8-.1 1.4.4-.3.5-1.3.9-2.2 1-1.1 0-1.2.3-.4.6.6.2 1.2 1.1 1.2 1.9 0 .8 1 2.5 2.1 3.7l2.2 2.2-.6-3.1c-.4-2 0-3.9.9-5.3 1.9-2.6 3.8-1.7 3 1.4-.3 1.2-.3 2.5 0 2.8.3.3.8 3.3 1 6.8.3 3.4.7 6.6 1.1 7.2 1.1 1.8 2.1-2.7 1.1-4.7-.8-1.5-.7-1.8.5-1.3.9.3 1.8-.1 2.1-.9.4-1 .1-1.4-.6-1.1-.9.2-1.7-1.5-2.5-5.2-.6-3.1-1-5.7-.9-5.9.2-.1 2 .5 4.2 1.4 3.5 1.5 3.7 1.5 2.5 0-.8-.9-2.7-2-4.4-2.4-2.1-.5-3.3-1.6-3.7-3.2-.8-3.3-2.9-3.8-2.3-.5.3 1.5.1 2.5-.6 2.5-.6 0-1.2-.6-1.2-1.3-.5-4.6-.3-6.4 1-7.9 1.3-1.7 1.5-1.7 2.7 0 .7.9 1.6 1.4 2 .9.4-.4.2-1.3-.4-1.9-.7-.7-1.3-2.1-1.3-3.3-.1-1.6-.2-1.7-.6-.3-1.4 5.4-3.4-1.6-2.3-8 .5-3.1.7-3.4 1.2-1.4.4 1.5 1.1 2 2.2 1.6 1.1-.4 1.3-1 .7-1.8-.5-.6-1.2-2.9-1.6-5.1-.4-2.9-.3-3.6.4-2.4.9 1.4 6.1 16.4 6.1 17.6 0 .3-1.2.3-2.7-.1-1.6-.3-2.2-.3-1.5 0 .6.3 1 1 .6 1.5-.3.5-.2 1.4.2 2.1.5.7 1.1.5 2.1-.8 1.3-1.8 1.4-1.8 1.9.3.3 1.2 1.2 2.4 1.9 2.7.9.3 1.1-.2.7-1.6-.3-1.4-.1-1.9.6-1.4.7.4 1.2.3 1.2-.3 0-.5.3-1.8.6-2.8.5-1.6.4-1.6-1 .1-1 1.2-1.9 1.6-2.5 1-1.3-1.4-3.3-13.2-2.6-15.4.5-1.4.2-1.8-.8-1.5-1.2.5-2.2-.8-4.5-5.9-.3-.5 0-.6.5-.3s2.4.9 4.2 1.2c3.1.5 3.1.5 2-1.7-.7-1.3-1.2-2.4-1.1-2.5.2-.4-.9-3.6-1.9-5.5-.5-1.1-.5-1.9.1-2.3.6-.4 1.3.2 1.7 1.2.4 1 1.1 2.1 1.7 2.5.7.5.5.8-.4.8s-1.1.3-.5.8c2 1.4 4.6 6.3 3.9 7.4-.4.7-.3.8.5.4.9-.6 1.1.3.9 3.1-.2 2.7.1 3.8 1.1 3.8.8 0 1.6-.6 1.9-1.4.3-.8 0-1.1-.6-.7-.6.3-1.3.2-1.6-.3-.4-.5-.2-1.2.3-1.6.6-.3.7-1.3.4-2.3-.4-1.2-.3-1.4.6-.6 1.5 1.3 5.2 8.6 4 7.8-.5-.3-.7.1-.4.8.3.7.1 2-.5 2.8-.8 1.3-1.1 1.2-2.4-.5-.9-1.1-1.6-1.5-1.6-.8 0 .6.5 1.5 1 1.8 1.9 1.2 1 2.6-1.2 2l-2.3-.7 2.3 2.2c1.3 1.2 2.1 2.7 1.9 3.4-.7 1.9 4 3.7 5.3 2.1.9-1 .6-1.6-.9-2.4-1.4-.8-1.8-1.7-1.4-2.9.6-1.5.5-1.5-1.1-.3-1.3 1.1-1.1.5.6-2.1 1.3-1.9 2.8-3.4 3.3-3.3.6.1.7 0 .3-.2-.5-.3-.8-1.3-.8-2.2 0-1-1-3-2.1-4.5-1.2-1.5-1.9-3-1.6-3.3.7-.7-4.1-10.5-5.7-11.5-2.5-1.6.7-2 5.1-.6 4.1 1.3 4.4 1.6 2.5 2.2-2.1.7-3.1 2.6-1.3 2.6.5 0 1.2.8 1.5 1.7 1.4 3.6 3.1 6.3 4.3 6.7 1.7.7 1.7-2.4-.1-4.9-.7-1.1-1.2-3.5-1.1-5.3.2-1.8-.2-3.2-.8-3.2-.6 0-.4-.8.6-1.7 2-2 3.1-1.1 4.1 3.1.6 2.6.5 2.8-.8 1.7-2.2-1.8-2.1.2 0 3.5 1 1.4 2.3 2.3 3.1 2 .8-.3 2.3 1 3.8 3.4 3 4.7 5 5.3 4.2 1.1-.8-3.9-4-11.1-4.9-11.1-.5 0-.8-.7-.8-1.5 0-2.6 1.9-1.6 2.6 1.2.4 1.6 2.2 4.3 4 6 1.9 1.8 3.4 3.7 3.4 4.3 0 .5.4 1 .9 1s1.2 1.2 1.6 2.7c.5 2.1.8 2.4 1.5 1.3.5-.8.7-2.4.5-3.5-1.2-6.4-1.7-7.5-2.9-7.5-.8 0-1.6.6-1.9 1.2-.2.7-.8.9-1.3.5-.5-.5-.1-1.3.9-1.8.9-.6 1.8-2.2 1.8-3.7.1-1.7.3-2 .6-1 .2 1 1.2 1.8 2.1 1.8 1.2 0 1.3.3.5.8-.9.6-.9 1.3.2 3.2 2.1 3.8 4.5 9.1 4.5 10.1 0 .5.8.6 1.8.2 1.6-.6 1.6-.5 0 1.3-1.4 1.7-1.4 2.1-.1 3.3 1.7 1.5 1.8 1.4 2.7-2.1.4-1.7.2-3-.7-3.5-.7-.4-2.1-2.8-3.1-5.3-4.2-10.4-7.5-15.5-8.3-13.3-.8 2.3-2.8 1.3-4.5-2.2-1.9-3.7-.7-4.9 1.4-1.5 1.3 2 2.8 2.7 2.8 1.2 0-.4-1.1-2-2.5-3.6s-2.5-3.2-2.5-3.6c0-1.2-7.5-5.7-12.1-7.3-5.4-1.8-6.3-3.7-1.5-3.1 2 .2 3.6.1 3.6-.3 0-1.3-1.7-3.5-2.6-3.5-.9 0-.9-.3.1-2.9.9-2.3-3.5-4.1-5.9-2.3-1.7 1.2-1.6 1.3 1.2.9 3.6-.4 4.9.7 2.8 2.4-1 .8-1.6.9-2.1.1-.8-1.3-2.5-1.3-2.5.1 0 .5.4.8.9.5.5-.3 1.5.2 2.2 1.1 1.1 1.3 1.1 1.7.1 2.1-.7.2-1.8 1-2.5 1.7-2.1 2-5.9 2.9-6.7 1.4-.6-.9-1.2-.8-2.6.6-1.2 1.1-1.9 1.4-2.2.6-.2-.6-1.1-1.1-2-1-1.1 0-1.2.2-.4.6.6.2 1.2.9 1.2 1.4 0 1-5.1.1-6-1-.3-.4-1.8-1.1-3.4-1.6-3.1-1.1-5.5-3.9-4.3-5.2.5-.4 1.3-.1 1.8.7.8 1.1.9 1 .4-.8-.5-1.7-.2-2.2 1.2-2.3 1.2 0 .8-.4-.9-.9-5.7-1.7-11.9-5.4-11.3-6.8.3-.7.5-1.7.5-2.2 0-.4.9-.6 2-.3s2 .9 2 1.4c0 .5.5.9 1.2.9.6 0 .4-.7-.5-1.8-1-1-1.4-2.2-1-2.7.5-.4.3-.5-.3-.2-.7.4-1.7 0-2.4-.8s-1.6-1.5-2-1.5c-1.2 0-2.2 3.3-1.1 3.9.5.4-.1 1.1-1.5 1.8-1.5.7-2.4.7-2.4.1s-.7-.7-1.6-.4c-.9.3-1.2.2-.9-.5.4-.6 1.3-.8 2.1-.5.8.3 1.4.1 1.4-.4 0-2.7-5.2.1-6.4 3.4-.5 1.5-.2 1.8 1.9 1.4 1.6-.4 2.5-.1 2.5.8 0 1.9-2.3 2.2-4.2.5-2-2-1.8-4.3.7-7.1 1-1.1 1.5-2.3 1.2-2.7-.4-.4-1.4.2-2.1 1.3-.8 1-1.8 1.6-2.2 1.1-.4-.4-.1-1.3.8-2 1.5-1.2 3.1-5.7 2.1-5.7-.3 0-1.1.7-1.8 1.6-1.1 1.5-1.2 1.5-1.8.1-.4-1 .1-1.8 1.4-2.2 2.6-.9 2.4-2.5-.3-2.6-1.3 0-1.7-.3-1-.6.6-.2 1.2-1.3 1.2-2.3 0-2.2-2.2-3.9-2.8-2.2-.2.7-1.2 1.2-2.2 1.2-1.9 0-3.4 2.5-2.4 4.1.8 1.4-3.2 1.1-4.4-.4-1.2-1.4 1-5.2 2.2-4 .4.4 1.1.1 1.6-.7 1-1.6 10-2.4 10-.9 0 .5.4.9 1 .9.5 0 .7-.7.4-1.5-.5-1.2.2-1.4 3.7-1.1 2.4.3 4.6.6 4.9.7zm20 .4c2.5-.8 6.8 2.4 4.9 3.5-.7.5-.5 1.2.5 2.3 2.3 2.2 2.1 2.3-2.8 2.3-4.4 0-4.5 0-5.1-3.8-.4-2.1-1.1-3.6-1.6-3.2-.5.3-.9-.2-.9-1.2 0-1.3.3-1.4 1.5-.4.8.6 2.3.9 3.5.5zm88.8 3c-.3.3-.9-.2-1.2-1.2-.6-1.4-.5-1.5.5-.6.7.7 1 1.5.7 1.8zm4.3.2c.1 1.6 0 3.2-.1 3.8-.2.5-.2 2.2-.1 3.7.1 1.6-.3 2.8-.9 2.8-.5 0-1-1.5-1.1-3.3 0-1.7-.2-4-.4-5.1-.2-1-.1-2.4.2-3.2.9-2.3 2.3-1.6 2.4 1.3zm-99.5 1.6c.3 2.4-1.3 2.1-1.9-.4-.3-1.2-.1-1.9.5-1.7.6.2 1.2 1.2 1.4 2.1zm105.5-1.1c0 .7.2 2.3.3 3.5.3 2.5-.4 2.9-2.1 1.2-1.1-1.1-.5-5.9.8-5.9.5 0 .9.6 1 1.2zm-26 1.5c.7 3.6.4 9.2-.4 8.4-1.2-1.2-1.5-9.1-.4-9.1.4 0 .8.3.8.7zm-108.3 7.4c-1.7 1.1-2.9.7-4.2-1.4-.8-1.2-.6-2.1.9-3.5 2-1.9 2-1.9 3.3 1.1 1.1 2.5 1.1 3.1 0 3.8zm260.2-5.6c0 .8.5 1.5 1 1.5.6 0 1-.5 1-1 0-.6.5-1 1-1 1.2 0 1.3 2.7.2 3.4-1.7 1-5.2-.7-5.2-2.5 0-1.1.5-1.9 1-1.9.6 0 1 .7 1 1.5zm-125 6.1c0 2.3-.2 2.5-1.5 1.4s-1.5-1-.9.6c.5 1.6.4 1.6-.5.4-1.6-2.2-1.3-3.8.7-4.3.9-.3 1.8-.5 2-.6.1 0 .2 1.1.2 2.5zm24-1.6c0 .5-.2 1-.4 1-.3 0-.8-.5-1.1-1-.3-.6-.1-1 .4-1 .6 0 1.1.4 1.1 1zm-41.5 1c.3.5.1 1-.4 1-.6 0-1.1-.5-1.1-1 0-.6.2-1 .4-1 .3 0 .8.4 1.1 1zm-14.8 6.9c-.2 5.7-1.7 5.8-1.7.2 0-3.3.6-5.1 1.7-5.1.1 0 .2 2.2 0 4.9zm164.3 2.6c0 1.5-.2 1.7-.9.6-.5-.7-1.5-1.7-2.2-2.2-1-.6-.7-.8.9-.6 1.5.1 2.2.8 2.2 2.2zm-101 4.7c.4 1.8 1.1 4.2 1.4 5.3.4 1.1-.2.4-1.3-1.5s-2-4.6-2.1-5.9c0-3.2 1-2.1 2 2.1zm-154.2.9c-.6.4-.6.9.1 1.3 1.3.8 1.5 5.6.2 5.6-.5 0-1.2-1.6-1.5-3.5-.4-1.9-1.2-3.5-1.8-3.5-.6 0-.3-.9.8-2.1 1.7-1.9 1.9-1.9 2.5-.2.3 1 .2 2.1-.3 2.4zm90.9-.9c.1.7.4 3.5.7 6.3.3 2.7.3 4.3-.1 3.5-.3-.8-1.2-2.1-2-2.8-.7-.8-1-1.9-.6-2.5.4-.7.6-2.2.4-3.5-.1-1.2.2-2.2.7-2.2.5 0 .9.6.9 1.2zm34.3-.2c0 .5-.2 1-.4 1-.3 0-.8-.5-1.1-1-.3-.6-.1-1 .4-1 .6 0 1.1.4 1.1 1zm-112.7 2.9c.6.6.1 1.3-1.1 2-2.1 1.1-2.4.9-3.5-2.1-.4-1.3-.1-1.6 1.5-1.3 1.2.3 2.6.9 3.1 1.4zm228.2-.9c-.3.5-1.2 1-1.8 1-.7 0-.6-.4.3-1 1.9-1.2 2.3-1.2 1.5 0zm16.5.7c0 .7 0 1.6-.1 2 0 .4.8 1 1.8 1.4 1.6.7 1.5.8-.4.8-1.2.1-3.4 1.7-5.1 3.7-2.1 2.5-3.2 3.2-3.7 2.3-.5-.8-.4-1 .3-.5.7.4 1.2.1 1.2-.8s.5-1.6 1.1-1.6c.8 0 .8-.4 0-1.4-.8-.9-.8-1.5-.2-1.8.6-.1 1.2-1.4 1.3-2.8.1-1.7.8-2.6 2-2.6 1 0 1.8.6 1.8 1.3zm-261.3 2.4c-.3 1.1-.1 1.9.3 1.9.5 0 1.1-.8 1.3-1.8.4-1.3.5-1.2.6.5 0 1.2-.4 2.5-.9 2.8-.6.4-.8 1.2-.4 1.8.3.7-.3.1-1.4-1.2-1.9-2.3-1.9-7.7 0-6.5.5.4.8 1.5.5 2.5zm252.5 2.9c-.6 1.1-1.2 2.4-1.2 3 0 1.1-4 5.4-4.5 4.8-.2-.2.9-2.9 2.3-6.1 1.8-4 2.9-5.4 3.6-4.7.7.7.7 1.6-.2 3zm-98.8 2.2c.4 1.7.2 2.8-.4 2.8-.5 0-1-1.4-1-3.2 0-3.6.4-3.5 1.4.4zm-147.1 4.3c1.8 3.7.7 5.6-1.8 3.5-1.1-.9-1.8-1-2.9-.1-1.1.9-1.5.6-1.8-1.8-.3-2-.1-2.8.6-2.3 2.3 1.4 3.7 1 3.1-.9-1.1-3.2 1-2.1 2.8 1.6zm202.7-1.6c0 .5.3 1.6.6 2.5.8 2-1.2 2.1-3.1.2-1-1-1.1-1.6-.2-2.5 1.3-1.3 2.7-1.4 2.7-.2zm-177.8 2.8c-.6.2-1 .9-.7 1.4.4.5-.1.6-1 .2-1.3-.5-1.4-.7-.3-1.4.7-.5 1.8-.8 2.3-.8.6 0 .4.3-.3.6zm210.8-.3c0 .3-.4.8-1 1.1-.5.3-1 .1-1-.4 0-.6.5-1.1 1-1.1.6 0 1 .2 1 .4zm-154 2.1c0 .8-.4 1.5-.9 1.5-1.3 0-2.2-1.6-1.4-2.4 1.1-1.1 2.3-.6 2.3.9zm159-.1c0 .3-.4.8-1 1.1-.5.3-1 .1-1-.4 0-.6.5-1.1 1-1.1.6 0 1 .2 1 .4zM121.3 197c.7 0 .7.4-.2 1.2-1 1.1-1.5.9-2.7-.6-1.9-2.6-1.8-4.1.2-2.2.8.9 2.1 1.6 2.7 1.6zm172.3-.4c-.4.9-.9 1.5-1.1 1.2-.3-.3-.3-1.3.1-2.2.4-.9.9-1.5 1.1-1.2.3.3.3 1.3-.1 2.2zm-178.9 0c-.3.3-1.2.4-1.9.1-.8-.3-.5-.6.6-.6 1.1-.1 1.7.2 1.3.5zm14.9 3.4c1.5 2.3 3.1 3.7 3.8 3.3.6-.4.5.1-.3 1-1.6 2-3.5 2.3-2.8.4.3-.7-.6-2.3-1.9-3.6-2.1-2-3.3-5.1-1.9-5.1.3 0 1.7 1.8 3.1 4zm147.4-3c1 .6 1.2 1.2.5 1.9s-1.4.4-2.3-.9c-1.3-2.1-.6-2.5 1.8-1zm-154.5 5.9c-.6.5-2.5-1-2.5-2 0-.5.6-.4 1.4.3.8.7 1.2 1.5 1.1 1.7zm-8.5-.3c0 1.4-.3 1.4-1.5.4-.8-.7-1.5-1.4-1.5-1.6 0-.2.7-.4 1.5-.4s1.5.7 1.5 1.6zm-13.5 4.4c-.3.5-1.2 1-1.8 1-.7 0-.6-.4.3-1 1.9-1.2 2.3-1.2 1.5 0zm165.9 2.4c-.3 1.4-1.2 2.6-2 2.6s-1.4.4-1.4 1c0 .5-.4 1-.9 1-.6 0 .2-1.8 1.6-4 2.9-4.4 3.7-4.6 2.7-.6zm28.6.2c-.6 1.4-1.7 3.2-2.5 4-1.3 1.4-1.5 1.4-1.5 0 0-.8.6-1.9 1.3-2.3.8-.4 1.6-1.6 2-2.6.3-.9.9-1.7 1.1-1.7.3 0 .1 1.2-.4 2.6zm23.3.5c.6 2.4-.3 9-1.2 8.5-.3-.2-.7 2.1-.9 5.2-.1 3.1-.7 6-1.1 6.6-.5.6-1.1 3.4-1.3 6.3-.5 6.3-1.3 7.5-2.2 3.2-.3-1.8-.9-2.9-1.3-2.5-1.1 1-1.2 3.6-.2 3.6.5 0 .9.4.9 1 0 .5-.7 1-1.6 1-1.2 0-1.4-.9-1.2-4.3.3-3.8.5-4.2 2.7-3.9 1.6.3 2.2-.1 1.9-1-.3-.7-1.1-1.3-1.9-1.3-1.5 0-1.5-2.8 0-11 .5-3 1.1-3.9 2.4-3.7 2 .3 2 .2.8-3.1-.7-1.9-.5-3 .7-4.6 2.1-2.6 2.8-2.6 3.5 0zm-47.1 1.1c-.7.7-1.2.8-1.2.2 0-1.4 1.2-2.6 1.9-1.9.2.3-.1 1.1-.7 1.7zm33.8-1.5c0 .5-.9 1.9-2 3.3s-2 3.5-2 4.7c0 1.2-.4 2.5-1 2.8-.5.3-1 1.5-1 2.6 0 1.6-.3 1.7-1.3.7-1.1-1-.8-2.4 2.2-8 3.2-6 5.1-8.3 5.1-6.1zm-15 1.8c0 .8-.4 1.5-1 1.5-.5 0-.7-.7-.4-1.5.4-.8.8-1.5 1-1.5.2 0 .4.7.4 1.5zm-186 1c.6.8.9 1.9.5 2.5-1.1 1.7-2.2 1.1-2.7-1.5-.6-2.8.3-3.2 2.2-1zM301.1 231l-1 2.5v-2.7c-.1-1.4.2-3.5.6-4.5.7-1.7.8-1.7 1.1.2.1 1.2-.2 3.2-.7 4.5zm-5.1-1.7c0 .8-.3 1.7-.7 2.1-.5.4-.8 1.3-.8 1.9 0 .7-.9 1.3-2 1.5-1.2.2-1.6 0-.9-.5.6-.4 1.4-2 1.8-3.6.6-2.7 2.6-3.8 2.6-1.4zm1.8 6.8c-.8.6-.9.9-.1.9 1.8 0 .8 3.5-1.2 3.8-1.5.3-1.7-.1-1.1-2.5.4-1.5 1.2-3 1.7-3.1.5-.2 1-1.1 1-2 .1-1.4.2-1.3.6.2.3 1-.1 2.2-.9 2.7zm7.5 3.4c-.3.8-.9 1.5-1.4 1.5-1 0-1.2-2.4-.3-3.3 1.1-1.1 2.4.3 1.7 1.8zm-1.8 3.4c.3.5.1 1.2-.5 1.6-.5.3-1-.1-1-.9 0-1.8.6-2.1 1.5-.7zM197.9 252c.2 6.9-1.3 6.4-1.7-.6-.2-3.1.1-5.3.6-5 .5.3 1 2.8 1.1 5.6zm96.6-3.9c-1 1.5-2.5 1-1.9-.6.4-.8 1-1.2 1.5-.9.5.3.7 1 .4 1.5zM149 255.4c0 .3-.4.8-1 1.1-.5.3-1 .1-1-.4 0-.6.5-1.1 1-1.1.6 0 1 .2 1 .4zm35.1 9.4c-.6 1-1 .5-1.4-1.8-.4-1.8-.4-3.7 0-4.3 1-1.6 2.4 4.3 1.4 6.1zm9.6-.1c-.3 1-.5.4-.5-1.2 0-1.7.2-2.4.5-1.8.2.7.2 2.1 0 3zm-32.1-1.5c.4.5-.5.8-2 .8-1.6 0-2.5.4-2.1 1 .3.5.1 1-.4 1-.6 0-1.1-.8-1.1-1.8 0-1.2.7-1.8 2.4-1.7 1.3 0 2.8.3 3.2.7zm-74.2 3.3c-.4.8-1 1.2-1.5.9-1.4-.8-1-2.4.6-2.4.9 0 1.2.6.9 1.5zm78.6 3c0 .5-1.1 1.1-2.5 1.1-1.5.1-2.5-.3-2.5-1.2 0-.9.9-1.3 2.5-1.2 1.4.1 2.5.7 2.5 1.3zm22.7 9.7c-.3.8-.6.5-.6-.6-.1-1.1.2-1.7.5-1.3.3.3.4 1.2.1 1.9zm-35.5 4.2c.7-.4.8-.2.4.4-.4.6-1.3.9-2.1.6-.8-.4-1.2-1.1-.8-1.7.5-.8.8-.7 1.1.1.2.7.9.9 1.4.6zm8.4 3.1c2.7 2.4 4.5 4.5 3.9 4.5-1.3 0-9.5-7-9.5-8.1 0-1.4.4-1.1 5.6 3.6zm81.8 3.3c-1.9 1.7-5 3.9-6.7 4.8-1.8.9-3.5 2.2-3.9 2.8-.4.6-.8.7-.8.2 0-.6 3-3.9 6.7-7.4 4.8-4.6 6.8-6 7.4-5 .6.9-.3 2.4-2.7 4.6zm-85.4-1.6c0 1.3-2.3.5-2.8-1-.2-.7.2-1 1.2-.6.9.3 1.6 1.1 1.6 1.6zm64-1.8c0 .3-.4.8-1 1.1-.5.3-1 .1-1-.4 0-.6.5-1.1 1-1.1.6 0 1 .2 1 .4zm14.1.8c-4.5 5.5-10.7 10.8-12.8 10.8-1 0 11.9-11.9 13-12 .4 0 .3.6-.2 1.2zM269 289c0 .5-.5 1-1.1 1-.5 0-.7-.5-.4-1 .3-.6.8-1 1.1-1 .2 0 .4.4.4 1zm-115 2c0 .5-.4 1-1 1-.5 0-1-.5-1-1 0-.6.5-1 1-1 .6 0 1 .4 1 1zm68.3.5c-.3.9-.8 1.4-1 1.1-.3-.3-.2-.9.2-1.5.9-1.6 1.5-1.3.8.4zM179 297c0 .5-.2 1-.4 1-.3 0-.8-.5-1.1-1-.3-.6-.1-1 .4-1 .6 0 1.1.4 1.1 1zm-30 1c0 .5-.4 1-1 1-.5 0-1-.5-1-1 0-.6.5-1 1-1 .6 0 1 .4 1 1zm120.8 1.7c-.9.2-2 1.3-2.3 2.3-.7 2.3-3.5 3.5-3.5 1.5 0-1.7 3.9-4.5 6-4.4 1.2.1 1.1.2-.2.6zM165 302.6c0 .2-.9 0-2-.6s-2-1.3-2-1.6c0-.2.9 0 2 .6s2 1.3 2 1.6zm-10.3 1c-.9.9-2.8-.6-2.1-1.8.4-.6 1-.6 1.7.1.6.6.8 1.3.4 1.7zm43.3-.6c0 .5-.4 1-1 1-.5 0-1-.5-1-1 0-.6.5-1 1-1 .6 0 1 .4 1 1zm-35.6 4.5c1.1.8 1.6 1.8 1.2 2.2-.3.4-1.6-.3-2.8-1.5-2.5-2.5-1.3-2.9 1.6-.7zm102.7 3.2c.7 1 1 1.5.5 1.1-.5-.4-1.7.3-2.7 1.6-1.9 2.4-7.3 4.9-8.3 3.9-.6-.7 2-3.4 3.1-3.2 2.3.4 3.4-.3 4.3-2.6 1.1-3 1.4-3 3.1-.8zm-7.1-.3c0 .5-6.9 4.6-7.8 4.6-1 0 1.4-2.1 4-3.5 2.4-1.4 3.8-1.8 3.8-1.1zm-78 6.2c0 1.5-.6 2.4-1.5 2.4-.8 0-1.5-.5-1.5-1 0-.6.5-1 1.1-1 .8 0 .9-.4 0-1.3-.6-.8-.8-1.7-.5-2 1.2-1.1 2.4.4 2.4 2.9zm63.6 0c-1.9 1.3-4.6 1.9-4.6.9 0-.8 5.5-3.4 6-2.8.3.2-.4 1.1-1.4 1.9zM151 320c1.1.7.5 1-2.3 1-2.3 0-3.6-.4-3.2-1 .8-1.3 3.5-1.3 5.5 0z"/><path d="M178.1 142.6c0 1.1.3 1.4.6.6.3-.7.2-1.6-.1-1.9-.3-.4-.6.2-.5 1.3zM77.7 151.1c-.9.6-2.2.7-2.8.3-.8-.4-.8-.1-.1 1.2.5 1.1.8 3.5.7 5.4-.1 2.3.5 4.1 1.8 5.5 1.2 1.3 1.8 1.5 1.5.5-.3-.8-.1-2.3.4-3.3.8-1.6.7-1.7-1.1-.8-1.7 1-2 .9-1.5-.4.4-.8 1-1.5 1.5-1.5.4 0 .6-.7.3-1.5-.4-1.1-.2-1.3.9-.9.8.3 1.8 0 2.3-.7.4-.8.3-1-.4-.5-1.9 1.2-3.5-.4-2.1-2 1.5-1.9.9-2.5-1.4-1.3zM83.9 154.7c0 .5-.2 1.6-.4 2.5-.2 1 0 2 .4 2.2.4.3.8-.9.9-2.5.1-1.6 0-2.9-.3-2.9s-.5.3-.6.7zM86.5 155c-.4.6.1 1 .9 1 .9 0 1.6.4 1.6 1 0 .5.4 1 1 1 1.3 0 .1-2.7-1.5-3.4-.8-.3-1.7-.1-2 .4zM116.5 157c.3.5.8 1 1.1 1 .2 0 .4-.5.4-1 0-.6-.5-1-1.1-1-.5 0-.7.4-.4 1zM99.7 160.4c-.4 1-.1 1.3.8.9.8-.3 1.2-.9.9-1.4-.7-1.2-1.1-1.1-1.7.5zM114.4 161.2c-.4.6-1.9.8-3.5.6-1.6-.3-2.9 0-2.9.5s-.7.7-1.5.4c-.8-.4-1.7-.1-2.1.4-.3.6-1.5.8-2.6.5-1.2-.2-2.8.2-3.6 1.1-1.5 1.4-1.4 1.5.3 1 4.2-1.2 9.6-1.7 9-.8-.3.5-.1 1.2.5 1.6.5.3 1 1.1 1 1.6 0 .6-.4.7-1 .4-1.7-1-1.1 1 .9 3.3 1 1.2 2.1 1.9 2.5 1.5 1-1 .7-2.3-.5-2.1-.6.2-1.4-.3-1.6-1-.3-.6 0-1.2.6-1.2s1.1-.7 1.1-1.5c0-.9.6-1.2 1.8-.9.9.3.6-.1-.7-.9-2.7-1.6-1.3-2.6 2.6-1.9 2.2.4 3.3 2.2 1.3 2.2-1.8 0-1 1.8 1 2.3 1.1.3 1.8.2 1.6-.2-.3-.4 0-1.3.5-2.1.8-1.3 1-1.3 1.9 0 .6 1 1 1.1 1 .2 0-.6.7-1.2 1.5-1.2s1.5-.4 1.5-1c0-.5-.6-.7-1.4-.4-.8.3-1.9-.3-2.5-1.4-1.1-2-5.7-2.7-6.7-1zM88.4 163.1c-.3.5.4.9 1.5.9 1 0 2.7.3 3.7.7 1.1.4 1.5.3 1.1-.4-.9-1.4-5.6-2.3-6.3-1.2zM93.2 167.2c-.8.8-.8 1.7-.1 3 .5 1 .7 2.4.3 3.1-.4.6.1.4 1.2-.5 1.9-1.6 2-1.6 3.2.2 1.4 2.2 4.2 2.7 4.2.7 0-.7-.9-1.8-2.1-2.5-1.1-.7-1.8-1.9-1.5-2.7.3-.9 0-1.2-1.1-.8-.8.3-1.8.1-2.2-.5-.5-.9-1-.9-1.9 0zm6.8 5.9c0 .6-.4.7-1 .4-.5-.3-1-1.1-1-1.6 0-.6.5-.7 1-.4.6.3 1 1.1 1 1.6zM118.5 170.9c-.3.5.2 1.1 1 1.5.8.3 1.7.1 2-.3.3-.5-.2-1.1-1-1.5-.8-.3-1.7-.1-2 .3zM134 171c-.9.6-1 1-.3 1 .6 0 1.5-.5 1.8-1 .8-1.2.4-1.2-1.5 0zM102 183c0 .5.5 1 1.1 1 .5 0 .7-.5.4-1-.3-.6-.8-1-1.1-1-.2 0-.4.4-.4 1zM136.7 186.7c-.4.3-.7 1.1-.7 1.7 0 .6.5.5 1.2-.2.6-.6.9-1.4.7-1.7-.3-.3-.9-.2-1.2.2zM145 190c0 .5.5 1 1.1 1 .5 0 .7-.5.4-1-.3-.6-.8-1-1.1-1-.2 0-.4.4-.4 1zM82 200.7c0 .6.8 1.7 1.8 2.4 1.6 1.3 1.6 1.3.2-.6-.8-1.1-1.6-2.2-1.7-2.4-.2-.2-.3 0-.3.6zM126 223.6c0 .8.5 1.2 1 .9.6-.3 1-1 1-1.6 0-.5-.4-.9-1-.9-.5 0-1 .7-1 1.6zM83.2 224.3c-.5.7-1.1 2.6-1.4 4.4-.4 2.8-.2 3.1 1.4 2.2 1-.5 1.8-1.7 1.8-2.5s-.4-1.2-1-.9c-.5.3-1-.1-1-.9 0-.9.7-1.6 1.5-1.6s1.5.4 1.5 1c0 .5.5 1 1 1 1.6 0 1.1-1.4-.9-2.7-1.5-.9-2.1-.9-2.9 0zM123.1 224.6c0 1.1.3 1.4.6.6.3-.7.2-1.6-.1-1.9-.3-.4-.6.2-.5 1.3zM147 227.1c0 2 7 15.9 8 15.9 1.1 0-1.9-7.8-4.2-10.9-1-1.3-1.8-3-1.8-3.7 0-.7-.4-1.6-1-1.9-.5-.3-1-.1-1 .6zM139.7 229.8c.2 1 1.1 1.9 1.9 1.9 1.8 0 1.8-.5 0-2.3-1.9-1.9-2.5-1.8-1.9.4zM154.5 232.1c-.4.6-.4 1.3 0 1.7.4.4 1 .1 1.2-.6.3-.6 1-.9 1.5-.6.7.4.8.2.4-.4-.9-1.5-2.3-1.5-3.1-.1zM146 234.5c0 .9-.6 1.2-1.5.9-1.2-.5-1.2-.2.1 2.5 1.7 3.5 2.9 4.1 1.9 1.1-.3-1-.1-2.8.5-4 .7-1.3.7-2 0-2-.5 0-1 .7-1 1.5zM100 235c0 .5.5 1 1.1 1 .5 0 .7-.5.4-1-.3-.6-.8-1-1.1-1-.2 0-.4.4-.4 1zM140.5 243.1c-.4.6-.4 1.3-.1 1.6.3.3 0 1.3-.7 2.1-1 1.3-.9 1.4.8.4 2.9-1.7 5.5-3.8 5.5-4.6 0-1-4.8-.7-5.5.5zM99 245.5c0 .9.5 1.5 1.1 1.3.6-.2 1.1-.8 1.1-1.3s-.5-1.1-1.1-1.3c-.6-.2-1.1.4-1.1 1.3zM121.6 244.9c-.4.5-.2 2.1.4 3.5.5 1.4.7 2.6.4 2.6-.4 0-.1.6.5 1.3.6.8.8 1.7.4 2-.3.4-.1 1.3.6 2.1.6.8 1.1 1.8.9 2.2-.3 1.4 3.1 7.4 4.3 7.4.6 0 .7.4.4 1-.3.5-.2 1 .4 1 .5 0 1.2-.4 1.5-.9.7-1.1-1.4-7.4-2.6-8.2-.6-.3-.9-1-.9-1.5.1-.5-.8-3.7-2-7.2-2-5.9-3.1-7.3-4.3-5.3zM113.3 246.2c-1.3.6-2.3 1.5-2.3 2 0 .4-.7.8-1.5.8s-1.5.4-1.5.8c0 1.7 2.6 3.2 5.6 3.2 2.7 0 3.2-.4 3.1-2-.1-1.1-.5-2-1-2s-.5-.9-.2-2c.7-2.3.8-2.2-2.2-.8zM85.5 246.9c-.3.5-.1 1.2.5 1.6.5.3 1-.1 1-.9 0-1.8-.6-2.1-1.5-.7zM149 248.9c0 .5.5 1.3 1 1.6.6.3 1 .2 1-.4 0-.5-.4-1.3-1-1.6-.5-.3-1-.2-1 .4zM156 249.4c0 .9.5 1.6 1 1.6.6 0 1-.4 1-.9 0-.6-.4-1.3-1-1.6-.5-.3-1 .1-1 .9zM103.5 252c.3.5.8 1 1.1 1 .2 0 .4-.5.4-1 0-.6-.5-1-1.1-1-.5 0-.7.4-.4 1zM86.5 253.1c-.4.6-.5 1.2-.2 1.5.2.3.7-.2 1-1.1.7-1.7.1-2-.8-.4zM118.7 252.7c-.4.3-.7 1.3-.7 2.2 0 1.3.2 1.3.9.2.5-.7 1.4-1.1 2-.7.7.5.9.1.5-.8-.7-1.7-1.6-2-2.7-.9zM88.6 254.5c-.3.8-.1 1.5.4 1.5.6 0 1-.7 1-1.5s-.2-1.5-.4-1.5-.6.7-1 1.5zM136.5 254.1c-1.1 1.6-.1 1.9 1.3.3.7-.8.8-1.4.3-1.4s-1.3.5-1.6 1.1zM163.1 255.6c0 1.1.3 1.4.6.6.3-.7.2-1.6-.1-1.9-.3-.4-.6.2-.5 1.3zM121.8 262.2c.5.5 1.6.8 2.3.6.8-.3.3-.7-1-1.1-1.7-.4-2.1-.3-1.3.5zM97 268.9c0 2.2.5 4.3 1 4.6.6.4 1-.8 1-2.9 0-2 .5-3.6 1-3.6.6 0 1-.5 1-1 0-.6-.9-1-2-1-1.7 0-2 .7-2 3.9zM133.7 268c-.3 1.3-1 1.8-2.1 1.4-.9-.3-1.6-.1-1.6.6 0 .6-.4.8-1 .5-.6-.3-.7.1-.3 1 .4 1.2.8 1.3 1.3.5.4-.7 1.3-.9 1.9-.6.6.4.9 1.1.6 1.6-.3.5.4 1.1 1.5 1.5 1.1.3 2 1.1 2 1.6s.6.9 1.4.9c1 0 1.4-1.2 1.2-4-.1-2.7.4-4.1 1.4-4.4.8-.3.3-.4-1.2-.2-1.9.2-2.8-.1-2.8-1 0-2.1-1.7-1.7-2.3.6zM90 269c0 .5.5 1 1.1 1 .5 0 .7-.5.4-1-.3-.6-.8-1-1.1-1-.2 0-.4.4-.4 1zM147.1 269.7c-.7.8-1 1.7-.7 2 .3.3 0 1.3-.7 2.2-1.1 1.4-1 1.4.6.2.9-.7 1.7-2 1.7-2.8 0-.8.5-1.1 1-.8.6.3 1 .2 1-.4 0-1.7-1.4-1.9-2.9-.4zM108 269.9c0 .5.7 1.2 1.6 1.5 1.4.5 1.5.4.4-.9-1.4-1.7-2-1.9-2-.6zM112 271.5c0 .8.2 1.5.4 1.5s.6-.7 1-1.5c.3-.8.1-1.5-.4-1.5-.6 0-1 .7-1 1.5zM114 274.5c-.7.9-2 1.3-2.9 1-.9-.3 0 .8 1.9 2.4 1.9 1.7 4.3 3 5.2 3.1 2.2 0 3.4 2 1.3 2-1 0-1.5.6-1.3 1.7.3 1.2 1.2 1.7 2.8 1.5 1.3-.1 2.5-.4 2.7-.5.7-.8-1.9-7.7-3-7.7-.8 0-.8-.3.2-.9 1-.6.5-1.3-1.9-2.5-4-1.9-3.5-1.9-5-.1zM148 274.7c0 1.7 1.9 3.7 2.7 2.9.4-.5.2-1.1-.5-1.3-.6-.3-1-.9-.6-1.4.3-.5 0-.9-.5-.9-.6 0-1.1.3-1.1.7zM140 276.9c-1.3 2.5-1.3 3.4 0 2.6 1.6-1 3.2-4.5 2.1-4.5-.6 0-1.5.9-2.1 1.9zM107 276.9c0 .6.4 1.3 1 1.6.6.3.7-.1.4-.9-.7-1.8-1.4-2.1-1.4-.7zM89.8 278.7c.7.3 1.6.2 1.9-.1.4-.3-.2-.6-1.3-.5-1.1 0-1.4.3-.6.6zM132 279.6c0 2.1 4.7 8 5.6 7.1.8-.8-.6-4.7-1.7-4.7-.5 0-.9-.7-.9-1.5s-.7-1.5-1.5-1.5-1.5.3-1.5.6zM105.6 282.9c-.3.5.1 1.1.9 1.5 1.5.6 2.9-.7 1.8-1.8-.9-.9-2.1-.8-2.7.3zM127 286.6c0 .8.5 1.2 1 .9.6-.3 1-1 1-1.6 0-.5-.4-.9-1-.9-.5 0-1 .7-1 1.6zM109.1 288.7c-1.8 2-.6 2.9 1.4 1 .8-.9 1.2-1.8.8-2-.5-.3-1.4.2-2.2 1zM130.5 289c-.8 1.3.3 3 1.8 2.9.8 0 .8-.2-.1-.6-1-.4-1-.8-.1-1.9.8-.9.8-1.4.1-1.4-.6 0-1.4.4-1.7 1zM125 290c0 .5.7.7 1.5.4.8-.4 1.5-.8 1.5-1 0-.2-.7-.4-1.5-.4s-1.5.4-1.5 1zM98.7 290.7c-1 .9-.9 2.3.2 2.3.5 0 1.1-.7 1.5-1.5.5-1.5-.5-2-1.7-.8zM120.5 291c.3.5.8 1 1.1 1 .2 0 .4-.5.4-1 0-.6-.5-1-1.1-1-.5 0-.7.4-.4 1zM108.6 295.7c.2 4.1.3 4.3 1.5 4.3.5 0 .8-.4.4-.9-.3-.5.4-1.3 1.6-1.6 1.7-.6 1.8-.9.8-1.6-.8-.5-1.6-.3-2.1.4-.5.8-.8.4-.8-1.1 0-1.2-.4-2.2-.8-2.2s-.7 1.2-.6 2.7zM101.3 296.5c0 .8.4 1.5.8 1.5s.9-.7 1.3-1.5c.3-.9 0-1.5-.8-1.5-.7 0-1.3.7-1.3 1.5zM113 309.5c0 1.6 1.6 2 2.4.6.3-.5-.1-1.1-.9-1.5-.9-.3-1.5 0-1.5.9zM126.5 312.1c-.4.6-.5 1.2-.2 1.5.2.3.7-.2 1-1.1.7-1.7.1-2-.8-.4zM104.9 151c0 .3-.2 1.5-.5 2.7-.2 1.3.1 2.3.6 2.3 1.6 0 2.4-3 1.1-4.3-.6-.6-1.1-.9-1.2-.7zM198.1 62.3c-.6.8-1.3 2.4-1.5 3.8-.3 1.3-.5 2.4-.6 2.4-.1 0-.4 1.1-.6 2.5-.2 1.3-1.2 3.5-2 4.8-.9 1.4-1.1 2.1-.5 1.8.7-.4 1.1.1 1.1 1.3 0 1.1 1 2.5 2.1 3.2 1.3.7 1.9.7 1.5.1-.3-.6-.2-1.3.4-1.7.5-.3 1-1.5 1-2.5s.4-2.2 1-2.5c.6-.4.7.1.4 1.2-.3 1 .3.3 1.5-1.5s2.1-3.6 2.1-4c0-.4-.4-.1-.9.7-.5.8-1.6 1.6-2.4 1.7-1.1.1-1.3-1.2-1.2-6.2.2-3.5.2-6.4 0-6.4-.1 0-.8.6-1.4 1.3zM216.9 63.8c-1.5 1.8-1.4 1.9 1.3 3 2.3.8 2.7.8 2-.1-.6-.7-1.1-2-1.3-3-.4-1.7-.5-1.7-2 .1zM207.1 68.7c-.8.8-1.5 2.9-1.7 4.5-.2 1.7-1.1 3.6-2 4.3-1 .7-1.3 1.4-.7 1.8 1.5 1 5.2-3.8 4.2-5.4-.5-.9-.2-2.3.7-3.7 1.8-2.8 1.5-3.7-.5-1.5zM187.7 68.7c-.8 1.3 1.1 5.3 2.5 5.3.9 0 .9-.3 0-1.2-1.9-1.9-1.4-3.7.8-3.1 1.1.3 2 0 2-.6 0-1.2-4.6-1.5-5.3-.4zM225.7 71.3c-.7 1.8.9 4.4 2 3.3.4-.5.3-1.1-.4-1.3-.7-.2-.9-1.1-.6-1.9.3-.8.3-1.4 0-1.4s-.7.6-1 1.3zM213 73c-.9.6-1 1-.3 1 .6 0 1.5-.5 1.8-1 .8-1.2.4-1.2-1.5 0z"/><path d="M222.6 75.5c.4.9 0 1.5-.9 1.5-1.7 0-4 2.4-3 3.3.3.4 1.2.2 1.9-.4.8-.7 1.4-.7 1.9.1.5.8 1.4.6 3.1-.5 2.2-1.4 2.4-1.4 3 1 .3 1.4 1.1 2.5 1.8 2.5.6 0 .4.5-.4 1-1.3.8-1.2 1 .4 1 2 0 8.6 6.4 8.6 8.2 0 .5.9 1.7 2 2.6 2.1 1.7 2.1 1.7-.4 4.3l-2.4 2.6h2.4c1.8 0 2.4-.4 2-1.4-.7-1.8 2-4.8 2.9-3.3.3.5.1 1-.5 1-.8 0-.9.7-.5 1.7s.8 2.3.9 3c.1.7.5 1.6.9 1.9.4.4.7 1.4.7 2.3-.1 1.4-.2 1.4-1.4-.1-1.3-1.8-2.6-1.4-2.6.7 0 .6 1 1.1 2.1 1.2 2.8.2 2.6 0 4.4 6.8 1.7 6.6 1.9 9.9.6 9.1-.4-.3-.6.6-.3 2 .3 1.7.7 2.2 1.2 1.4.4-.7 1.3 1.8 2 5.9 1 5.9.9 7.5-.2 8.9-1.2 1.5-1.1 1.6.5.3 1.7-1.3 1.7-1.1 1.1 2.7-.5 3.3-.3 4.3.9 4.8 1.3.5 1.2.9-.6 2.7l-2.1 2.1 2.2.9c2.3 1 3 2.7 1.2 2.7-1.4 0-1.3 3.3.2 4.8.9.9.7 1.3-.6 1.8-1 .4-2.3.1-2.9-.6-.9-1-.9-1.1.3-.5 1.3.8 1.3.7 0-1-1.4-1.7-1.5-1.7-1.8 1.1-.2 1.5.1 3 .7 3.2.6.2 1.1 2.1 1.1 4.3 0 3.7 1.9 5.7 2.1 2.1 0-1 .3-1.2.6-.5.8 2 2.3 1.5 2.3-.7 0-1.1.5-2 1-2 .6 0 1-.4 1-1 0-.5-.6-.7-1.3-.4-.8.3-1.4-.2-1.4-1s.3-1.4.6-1.2c.3.2.7-4.4.9-10.3.3-11-1.4-25.4-4.2-35.5-.9-3.3-1.6-6.7-1.5-7.5.2-1.9-.5-4.2-3.2-9.6-1-2.2-1.9-4.7-1.9-5.5 0-2.8-3.4-7.8-9.7-14.3-3.4-3.6-6.7-7.7-7.4-9.3-1-2.8-1.1-2.8-2.5-1-1.3 1.8-1.5 1.8-3.2.3-2.3-2.1-3.3-2.2-2.6-.2zM207.4 78.5c-1.8 1.3-1.8 1.4.4.8 1.2-.3 2.5-.9 2.8-1.4.8-1.4-1-1.1-3.2.6zM184.8 78.7c.7.3 1.6.2 1.9-.1.4-.3-.2-.6-1.3-.5-1.1 0-1.4.3-.6.6zM215 79.1c0 .5.5.7 1 .4.6-.3 1-.8 1-1.1 0-.2-.4-.4-1-.4-.5 0-1 .5-1 1.1zM162 79.9c0 .6-.6.8-1.2.6-.8-.3-1.3.4-1.3 2 0 1.4 0 2.5.1 2.5.9 0 4-5.1 3.4-5.5-.6-.4-1-.2-1 .4zM190 80.1c0 .5.5.7 1 .4.6-.3 1-.8 1-1.1 0-.2-.4-.4-1-.4-.5 0-1 .5-1 1.1z"/><path d="M215 82.6c0 .8-.4 1.4-1 1.4-.5 0-1 .7-1 1.5s.5 1.5 1 1.5c.6 0 1-.7 1-1.5 0-.9 1-1.9 2.2-2.4l2.2-.8-2.2-.5c-1.5-.4-2.2-.2-2.2.8zM158 86.4c0 .4.7 1.4 1.5 2.2.8.9 1.5 1.1 1.5.6 0-.5-.7-1.5-1.5-2.2-.8-.7-1.5-.9-1.5-.6zM190.6 87.6c-.4.9-.4 1.9-.1 2.2.2.3.7-.3 1.1-1.2.4-.9.4-1.9.1-2.2-.2-.3-.7.3-1.1 1.2zM172 88.1c0 1.4 1.8 1.9 2.3.7.3-1 .9-.9 2.2.4 1.7 1.6 1.7 1.8.2 4.2-1.1 1.6-2.3 2.3-3.2 2-.8-.4-1.5-.2-1.5.4 0 .6.6 1.2 1.2 1.4 1.6.6-1.5 4-3.3 3.6-.6-.2-1.3.5-1.4 1.4-.4 2.4.8 2.3 3-.2 1.6-1.8 4.2-1.9 3.1-.1-.3.3.4.7 1.5.7 1 0 1.5-.4 1.1-.8-1.4-1.4-.1-7 1.3-6.4 1.5.5 3-2.4 1.8-3.3-.4-.3-1.3-1.5-1.9-2.6-1.1-1.9-6.4-3.1-6.4-1.4zM221.2 89.1c.2.7 1 1.5 1.7 1.7.8.3 1.2-.1.9-.9-.2-.7-1-1.5-1.7-1.7-.8-.3-1.2.1-.9.9zM207.2 92.1c-1.9 3-.8 3.4 1.2.4.9-1.4 1.3-2.5.9-2.5-.5 0-1.4.9-2.1 2.1z"/><path d="M174 93.1c0 .5.5.7 1 .4.6-.3 1-.8 1-1.1 0-.2-.4-.4-1-.4-.5 0-1 .5-1 1.1zM169 95.2c0 .9-.6 1.8-1.2 2.1-.7.3-.3.4 1 .4 2.4-.1 2.6-.5 1.2-2.7-.8-1.3-1-1.3-1 .2zM183 95.4c0 1.9 1.7 2.9 2.5 1.6.3-.5 0-1-.7-1-.9 0-.9-.3.2-1 1.3-.8 1.2-1-.2-1-1 0-1.8.6-1.8 1.4zM203.5 95c-.3.5-.1 1 .4 1 .6 0 1.1-.5 1.1-1 0-.6-.2-1-.4-1-.3 0-.8.4-1.1 1zM211.5 95.9c-.3.5-.1 1.2.5 1.6.5.3 1-.1 1-.9 0-1.8-.6-2.1-1.5-.7zM222.3 97.7c0 .8.6.9 1.9.2 1-.5 1.8-1.1 1.8-1.2 0-.2-.8-.3-1.8-.3s-1.9.6-1.9 1.3zM207 99.5c0 .7.6 1.8 1.3 2.2.6.4 1.2 1.4 1.2 2.2 0 .8 1.6 2.3 3.5 3.4 1.9 1 2.8 1.3 2 .5-2.2-1.9-5.2-6.8-4.2-6.8.4 0 1.4.6 2.2 1.2 1.2 1.1 1.2 1 .1-.5-.9-1.1-2.1-1.5-3.2-1.2-1.4.5-1.7.2-1.3-.9.3-.9.1-1.6-.5-1.6s-1.1.7-1.1 1.5zM217.1 99.6c.7.9.6 1.9-.3 3.3-.8 1.4-.9 2.4-.2 3.1.6.6 1.3-.5 1.9-3.3.9-3.8.8-4.3-.7-4.3-1.2 0-1.4.4-.7 1.2zM234.7 99.7c-.4.3-.7 1.1-.7 1.7 0 .6.5.5 1.2-.2.6-.6.9-1.4.7-1.7-.3-.3-.9-.2-1.2.2zM181 102.5c-.8 1-.8 1.5.1 2.1.8.5.9.3.4-.6-.6-.9-.4-1.2.6-.8.8.3 2.3 0 3.2-.7 1.6-1.1 1.5-1.3-.8-1.3-1.3 0-2.9.6-3.5 1.3zM226.3 102.6c0 1.6 1.3 1.9 2.1.5.3-.5 0-1.1-.7-1.4-.8-.3-1.4.1-1.4.9zM223.5 104c-.3.5-.1 1 .4 1 .6 0 1.1-.5 1.1-1 0-.6-.2-1-.4-1-.3 0-.8.4-1.1 1zM230 103.4c0 .2.7.6 1.5 1 .8.3 1.5.1 1.5-.4 0-.6-.7-1-1.5-1s-1.5.2-1.5.4zM176 105.8c0 1.6-.4 2-1.7 1.5-1.4-.5-1.5-.3-.6.7.6.7.9 1.9.6 2.6-.3.8 0 1.4.7 1.4.6 0 .8-.5.4-1.2-.5-.7-.2-.9.8-.6 1.1.5 1.5-.1 1.4-2.2-.1-3.3-1.6-5.3-1.6-2.2zM219.5 105c.3.5.8 1 1.1 1 .2 0 .4-.5.4-1 0-.6-.5-1-1.1-1-.5 0-.7.4-.4 1zM239.8 104.7c-2 .5-2.2 1.2-.9 3.2.7 1 .5 1.9-.6 2.6-1.1.9-1.3 1.4-.5 1.9.7.4 1.2.2 1.2-.4 0-.8.6-.8 2 0 1.4.7 2 .7 2 0 0-.5-.6-1-1.3-1-.8 0-1.2-1.1-1.1-2.8.1-1.5.7-2.6 1.3-2.4.7.1 1-.2.6-.8-.3-.5-.7-.9-.8-.9-.1.1-1 .3-1.9.6zM182.3 105.7c-.7.3-1.3 1.2-1.3 2.1 0 1.5-.2 1.5-1 .2-.8-1.2-1-.9-1 1.3 0 2.4.2 2.6 1.9 1.5 1-.6 1.7-1.8 1.4-2.5-.3-.7 0-1.3.6-1.3s1.1.3 1.1.7c.1.5.9 1.8 1.9 3.1 2.2 2.6 5.5 2 4.8-.9-.3-1 0-2 .7-2.2.6-.2.8-.7.4-1.1-.3-.4-1.5-.2-2.6.5-1.7 1.1-2.4 1-3.9-.3-1-.8-2.4-1.3-3-1.1zm6.7 5.3c0 .5-.2 1-.4 1-.3 0-.8-.5-1.1-1-.3-.6-.1-1 .4-1 .6 0 1.1.4 1.1 1zM230 106c0 .5.5 1 1.1 1 .5 0 .7-.5.4-1-.3-.6-.8-1-1.1-1-.2 0-.4.4-.4 1zM232.7 108c-.3 1.1-.3 2-.1 2 .3 0 1.4-.9 2.6-2 2.2-2 2.2-2 .1-2-1.2 0-2.3.8-2.6 2zM221 108.9c0 .5.6 1.1 1.2 1.3 1.4.5 1.7 5 .4 5.9-.5.4.1 1.2 1.2 1.8 1.8.9 2 .8 1.7-.6-.2-1-.6-2.6-1-3.6-.8-2-.2-2.1 2.6-.7 1.4.8 1.9.7 1.9-.1 0-.6.7-.9 1.5-.6.8.4 1.7.1 2.1-.5.4-.6.3-.8-.3-.5-.6.4-1.4 0-1.7-.9-.5-1.4-.8-1.4-2.3.1-1.6 1.6-1.8 1.6-3.3-.1-1.7-2.1-4-2.9-4-1.5zM214 111c0 .5-.8.7-1.7.4-1.3-.4-1.4-.3-.5.3.7.6 1.4 1.9 1.5 3 .1 1.8 2.7 3 2.7 1.2 0-.4 1.2-1 2.6-1.3 1.5-.4 2.4-.9 2.2-1.2-.3-.2-1.8 0-3.3.6-3.4 1.3-4.5.5-2-1.3 1.6-1.3 1.6-1.4.1-2-.9-.4-1.6-.2-1.6.3zM159 115c0 .5.7 1 1.6 1 .8 0 1.2-.5.9-1-.3-.6-1-1-1.6-1-.5 0-.9.4-.9 1zM184 115.9c0 .6.4 1.3 1 1.6.6.3.7-.1.4-.9-.7-1.8-1.4-2.1-1.4-.7zM163 118c0 .5.5 1.2 1 1.5.6.3 1 1.7 1 3.1 0 2.7 1.5 3.2 2.4.9.3-.8.1-1.5-.5-1.5s-.8-.4-.5-.8c.3-.5-.4-1.6-1.5-2.5-1-.9-1.9-1.3-1.9-.7zM156 119.5c-1 1.2-.9 1.5.4 1.5 1 0 2.4-.7 3.2-1.5 1.4-1.3 1.3-1.5-.4-1.5-1.1 0-2.5.7-3.2 1.5zM171.3 119.7c-1 1.6-1.3 1.6-2.2.3-.6-.8-1.1-1-1.1-.5 0 1.6 3 5.5 4.1 5.5.6 0 .7-.9.4-2-.5-1.4-.2-2 .9-2 .9 0 1.6-.7 1.6-1.5 0-2-2.2-1.9-3.7.2zM214.1 118.7c-.1 1.7 1.6 2.5 2.5 1.2.4-.7.3-.9-.4-.5-.5.3-1.3 0-1.5-.6-.4-.9-.6-1-.6-.1zM243 122c0 .5.7.7 1.5.4.8-.4 1.5-.8 1.5-1 0-.2-.7-.4-1.5-.4s-1.5.4-1.5 1z"/><path d="M173.5 123c.3.5.8 1 1.1 1 .2 0 .4-.5.4-1 0-.6-.5-1-1.1-1-.5 0-.7.4-.4 1zM219 123c0 .5.5 1 1 1 .6 0 1-.5 1-1 0-.6-.4-1-1-1-.5 0-1 .4-1 1zM177 124.5c0 2-5.2 5.4-5.8 3.7-.2-.6-.8-1.2-1.3-1.2-.4 0-.6.7-.3 1.5.4.8 1.2 1.5 1.9 1.5.8 0 1.6.8 1.8 1.7.4 1.7.5 1.7.6 0 0-.9.6-1.7 1.2-1.7.5 0 .8-.4.4-.9-.3-.5.3-1.2 1.3-1.5 1.7-.6 2.6-4.6 1-4.6-.4 0-.8.7-.8 1.5zM234.8 124.8c.8.5 1.1 2 .8 3.5-.3 1.5 0 2.7.6 2.7.5 0 .8-.6.5-1.4-.3-.7.1-2.2.8-3.3 1.2-1.7 1.1-1.9-1.3-2.1-1.8-.1-2.2.1-1.4.6zM242 126c0 .5.5 1 1.1 1 .5 0 .7-.5.4-1-.3-.6-.8-1-1.1-1-.2 0-.4.4-.4 1zM157 127.4c0 .2.8 1 1.8 1.7 1.5 1.3 1.6 1.2.3-.4s-2.1-2.1-2.1-1.3zM219.7 127.7c-.4.3-.7 1.3-.7 2.2.1 1.3.3 1.3 1.1-.2 1.1-1.9.8-3.3-.4-2zM231.5 129c-.3.5-.1 1 .4 1 .6 0 1.1-.5 1.1-1 0-.6-.2-1-.4-1-.3 0-.8.4-1.1 1zM243.9 130.9c.6 1 2.2 2.1 3.6 2.3 3.3.7 3.2.4-1-2.1-3.3-1.9-3.5-1.9-2.6-.2zM164 131.4c0 2.2 1.7 2.8 2.4 1 .9-2.2.8-2.4-.9-2.4-.8 0-1.5.6-1.5 1.4zM238.4 133.8c0 1.1.8 1.9 1.9 1.9 1.8.2 1.8.1.2-1.8-2.2-2.3-2.1-2.3-2.1-.1zM162.1 135.6c0 1.1.3 1.4.6.6.3-.7.2-1.6-.1-1.9-.3-.4-.6.2-.5 1.3zM240.8 142.7c.6.2 1.8.2 2.5 0 .6-.3.1-.5-1.3-.5-1.4 0-1.9.2-1.2.5zM237.9 148.7c0 .5-.2 1.8-.3 3-.3 2.3.8 3.1 1.9 1.4.3-.5.1-1.2-.4-1.6-.6-.3-.8-1.2-.4-2 .3-.8.2-1.5-.1-1.5-.3 0-.6.3-.7.7zM155.5 155c-.8 1.4.3 3 2.1 3 .8 0 1.4-.5 1.4-1 0-.6-.7-1-1.6-1-.8 0-1.2-.5-.9-1 .3-.6.4-1 .1-1-.3 0-.8.4-1.1 1zM150 156c-.8.5-1.1 1.2-.8 1.6 1 .9 3.8-.3 3.8-1.6 0-1.2-1-1.3-3 0zM244 159c-.9.6-1 1-.3 1 .6 0 1.5-.5 1.8-1 .8-1.2.4-1.2-1.5 0zM310 164c-2 2.7-1.9 3.5.3 3.1.4-.1 1.5.6 2.4 1.5 1.3 1.3 1.8 1.3 2.5.2.8-1 1.1-1 1.5-.1.6 1.7 2.4 1.7 2.1.1-.2-.7.3-1.2 1-1.3.6 0 1.2-.3 1.2-.8V165c0-.6-1-1-2.2-1-1.5 0-1.9.3-1.1.8.7.5-.4.8-2.7.9-4.4.2-4.5.1-3-2.8 1.6-2.9.4-2.3-2 1.1zM304 164c0 .5.5 1 1.1 1 .5 0 .7-.5.4-1-.3-.6-.8-1-1.1-1-.2 0-.4.4-.4 1z"/><path d="M313 164c0 .5.5 1 1 1 .6 0 1-.5 1-1 0-.6-.4-1-1-1-.5 0-1 .4-1 1zM295.7 167c-.9 1.1-1.3 2-.7 2 .5 0 1.2-.5 1.5-1.1.4-.6 1.4-.8 2.2-.5.9.4 1.3.1 1.1-.6-.7-2-2.3-1.9-4.1.2zM341.7 168.1c-.6 2.4.1 4.9 1.4 4.9.5 0 .9-.8.9-1.8.1-1.6.1-1.6 1.4 0 1.9 2.5 4.3 2.2 6.2-.8 1.3-1.9 1.9-2.2 2.5-1.2.7 1 .9 1 .9 0s.5-1 2.3-.1l2.2 1.2-2-2.2c-1.1-1.3-2.1-1.8-2.3-1.1-.3.8-.8.8-1.8-.1-.9-.7-1.4-.8-1.4-.1 0 .6-1.6 1-3.5.9-1.9-.1-3.5-.5-3.5-1 0-1.7-2.8-.5-3.3 1.4zM305 167.9c0 .6.5 1.3 1 1.6.6.4.8 1.1.5 1.6-.4.5-.1.9.4.9 1.2 0 1.4-1.1.5-3.4-.7-1.7-2.4-2.2-2.4-.7zM61 169c-.8.5-1.2 1.2-.9 1.5.4.3 1.2-.1 1.9-1 1.4-1.7 1.1-1.9-1-.5zM192.3 174.7c.2 3.2 0 6.6-.5 7.5-.9 1.9-.1 2.3 2.1.9.7-.5 1.1-1.3.7-1.9-.3-.6-.2-1.3.3-1.6.5-.3.5-2.4 0-4.8-.4-2.4-.8-4.6-.9-5.1 0-.4-.5-.7-1.1-.7-.7 0-.9 1.9-.6 5.7zM369.5 171c-.3.5-.1 1 .4 1 .6 0 1.1-.5 1.1-1 0-.6-.2-1-.4-1-.3 0-.8.4-1.1 1zM247.5 172c.3.5.8 1 1.1 1 .2 0 .4-.5.4-1 0-.6-.5-1-1.1-1-.5 0-.7.4-.4 1zM309 172c0 .5 1.1 1.2 2.4 1.6 2.6.6 4.1 4 2.4 5-.6.4-1.5-.1-2-1s-1.7-1.6-2.6-1.5c-1 0-1.2.3-.4.6.6.2 1.2 1.2 1.2 2 0 .9.3 1.4.6 1.1.3-.4 1.9-.2 3.6.2 2.9.9 3 .8 2.2-1.8-.4-1.5-.7-3.7-.7-5 .1-2.4-1.2-3-2-1-.4 1-.7 1-1.8 0-1.6-1.4-2.9-1.6-2.9-.2zM249 175.7c0 .5.5 1.5 1 2.3.7 1.2.9 1 .7-.8-.1-1.9-1.7-3.3-1.7-1.5zM260.9 175.5c0 .5-.2 1.8-.4 2.9-.8 4.2.6 4.7 4.1 1.6 1.9-1.6 3.8-3 4.3-3 1.4 0 .4 5.1-1.5 7.1-1.6 1.7-1.6 1.9 0 2.5.9.4 2 .3 2.4-.1.4-.4.1-1-.5-1.2-1-.4-.9-.8.1-1.9.8-.8 1.4-2.7 1.2-4.2-.2-2.5-.5-2.7-4.1-2.5-2.3.2-4.2-.2-4.7-1-.4-.6-.8-.8-.9-.2zM278.4 177.1c-.3.6.3 2.1 1.5 3.3l2.2 2.1-1.2-3.3c-1.2-3.5-1.5-3.7-2.5-2.1zM297.5 179c.3.5.8 1 1.1 1 .2 0 .4-.5.4-1 0-.6-.5-1-1.1-1-.5 0-.7.4-.4 1zM306.4 179.6c.3.9.6 1.8.6 2 0 .2.4.4.8.4s.8-.9.9-2c.1-1.2-.4-2-1.4-2-1 0-1.3.6-.9 1.6zM159 179.7c.5.2.8.9.4 1.4-.3.5 0 .9.6.9 1.5 0 .7-2.3-.8-2.6-.7-.1-.8 0-.2.3zM221.2 181.2c.2.6 1 1.4 1.6 1.6.7.2 1-.2.6-1.2-.7-1.8-2.8-2.2-2.2-.4zM301.6 181.3c.3 1 .9 1.5 1.2 1.2.3-.3 0-1.1-.7-1.8-1-.9-1.1-.8-.5.6zM251.9 182.7c0 .5-.2 1.7-.5 2.8-1.5 7.4-1.6 10.1 0 11.4 1.7 1.4 1.5 1.7 3.3-4.3.6-2 1.7-3 3.3-3.3 3.1-.5 3.8-1.2 2-2.3-.8-.6-1.1-1-.6-1 .5 0-.3-.9-1.7-2-2.5-2-5.6-2.7-5.8-1.3zM196 187.3c0 .8.7 1.7 1.5 2.1.8.3 1.5.2 1.5-.3s-.7-1.4-1.5-2.1c-1.2-1-1.5-1-1.5.3zM156.6 188.3c.3 1 .9 1.5 1.2 1.2.3-.3 0-1.1-.7-1.8-1-.9-1.1-.8-.5.6zM245 188c0 .5.7.7 1.5.4.8-.4 1.5-.8 1.5-1 0-.2-.7-.4-1.5-.4s-1.5.4-1.5 1zM154 189.5c0 .8.4 1.5 1 1.5.5 0 .7-.7.4-1.5-.4-.8-.8-1.5-1-1.5-.2 0-.4.7-.4 1.5zM191 188.5c0 .5.5 1.7 1 2.5s1 1 1 .5c0-.6-.5-1.7-1-2.5s-1-1.1-1-.5zM243 195.1c0 1.2.5 1.9 1.2 1.7 1.8-.6 2-2.5.3-3.1-1-.5-1.5 0-1.5 1.4zM157.2 196c.9 1.4 1.4 1.6 2 .7 1.3-2 .9-2.7-1.2-2.7-1.8 0-1.9.3-.8 2zM182 196c0 .5.5 1 1 1 .6 0 1-.5 1-1 0-.6-.4-1-1-1-.5 0-1 .4-1 1zM257 195.9c0 .6.4 1.3 1 1.6.6.3.7-.1.4-.9-.7-1.8-1.4-2.1-1.4-.7zM206 196.4c0 .2.7.7 1.6 1 .8.3 1.2.2.9-.4-.6-1-2.5-1.4-2.5-.6zM245.5 197c-.3.5.4 1.9 1.6 3.1l2.1 2.1-2.4-.7c-1.9-.6-2.1-.5-1 .6 1.8 1.9 1.5 3.4-.5 1.8-1.5-1.3-1.5-1.2-.3.7 1 1.7.9 3.1-.8 9-1.2 3.8-2.3 7.8-2.5 8.9-.2 1.1-.9 1.9-1.5 1.7-1.4-.2-1.6 1.4-.3 2.2.5.4.3 1.9-.6 3.6-.8 1.7-1.6 4.3-1.8 5.9-.4 3.3-2.9 8.6-4.5 9.6-.5.3-1 1.5-1 2.6 0 1-.8 2.7-1.8 3.7-.9.9-1.6 2.5-1.4 3.5.2.9-.1 1.7-.6 1.7s-1 .6-.9 1.2c.1 3.8-.4 5.8-1.6 5.8-.7 0-1.4 1.3-1.5 2.9-.2 3.1.7 4.4 2.4 3.3 1.5-1 5.4-8.1 5.4-9.8 0-.8.9-2.3 1.9-3.3 1.1-1.1 1.7-2.1 1.5-2.4-.3-.3.6-2.7 1.9-5.3 1.4-2.7 3.3-7.2 4.2-9.9.9-2.8 1.9-5.7 2.2-6.5.3-.8.6-2.4.7-3.5.1-1.1.6-1.9 1.2-1.8.7.1.9-.8.6-2.2-.2-1.4.7-5.4 2.2-9 1.4-3.6 2.6-7.4 2.6-8.5 0-1.2.7-2.3 1.5-2.6.8-.4 1.5-1.2 1.5-1.9 0-1.7-4.9-5.7-6.1-4.9-.5.3-.6-.2-.3-1 .7-1.7-1.1-2.2-2.1-.6zm7.5 6.1c0 .5-.4.9-1 .9-.5 0-1-.7-1-1.6 0-.8.5-1.2 1-.9.6.3 1 1 1 1.6zM188 198c0 .5.5 1 1.1 1 .5 0 .7-.5.4-1-.3-.6-.8-1-1.1-1-.2 0-.4.4-.4 1zM160 199.5c-1.1 1.3-1 1.4.4.9.9-.3 1.6-1 1.6-1.5 0-1.3-.6-1.1-2 .6zM180.3 200.5c0 .8.4 1.2.9.9.5-.3.6-1 .3-1.5-.9-1.3-1.2-1.1-1.2.6zM187.2 200.6c1 1 2 1.6 2.2 1.3.3-.3-.5-1.1-1.7-1.8-2.1-1.3-2.1-1.2-.5.5zM210.5 203.1c-.5 1.4-.2 2.5.6 3 1 .6 1.1.9.2.9-2.2 0-1.4 2.7.9 3.4 1.7.4 2 .8 1.1 1.7-1.4 1.4-.5 4.2 1 3.2.5-.3.7-.1.3.5-.8 1.3 4.1 7.2 6 7.2 1.8 0 1.7-.6-.1-7.7-1.7-6.7-4.5-13.3-5.6-13.3-.4 0-1.4-.3-2.2-.6-1-.3-1.8.2-2.2 1.7zM197.1 204.7c0 1.7.4 3.5.9 3.8.6.3 1 0 1-.9 0-.8.6-1.7 1.3-1.9.7-.4.6-.6-.5-.6-.9-.1-1.9-.9-2.1-1.9-.3-.9-.5-.3-.6 1.5zM174.9 203.2c-.6 2-.5 3.8.2 4.9.6 1 .9.4.9-1.9 0-1.7-.2-3.2-.5-3.2s-.5.1-.6.2zM186.1 203.5c-.1.6.4 1.6 1.1 2.3.6.6.8 1.5.4 1.9-.4.4-1.2.1-1.7-.7-.8-1.1-.9-.8-.5 1.3.6 2.6.5 2.7-2.1 2.1-2.7-.6-2.7-.6-.8.9 1 .8 2.4 1.3 3 1 .7-.2 2 1.7 3 4.2 1.9 4.5 4.2 6.3 3.2 2.4-.3-1.2 0-2.2.9-2.6.8-.3 1.4-1.4 1.4-2.5 0-3-4.2-9.9-5.6-9.4-.7.3-1.5 0-1.8-.7-.2-.7-.5-.7-.5-.2zM161.5 208c-.3.5-.1 1 .4 1 .6 0 1.1-.5 1.1-1 0-.6-.2-1-.4-1-.3 0-.8.4-1.1 1zM175.8 210.8c-1.9.4-2.5 2.2-.8 2.2.6 0 1 1.1 1 2.4 0 1.4.5 2.8 1 3.1.6.4 1-.5.8-2.3-.1-1.7.3-3.6 1-4.4 1.3-1.6.6-1.8-3-1zM203.6 210.9c-.4.7-.5 1.5-.2 1.8.9.9 1.9-.4 1.4-1.8-.4-1.1-.6-1.1-1.2 0zM223 210.4c0 .2.7.7 1.6 1 .8.3 1.2.2.9-.4-.6-1-2.5-1.4-2.5-.6zM161 212c0 .5.6 1 1.4 1 .8 0 1.8-.5 2.1-1 .3-.6-.3-1-1.4-1-1.2 0-2.1.4-2.1 1zM203 219.6c0 2.1-.4 3.3-1 2.9-1.6-1-1.2 1.1.5 2.5.8.7 1.5 1.1 1.6.9.8-3.8.8-9.9 0-9.9-.6 0-1.1 1.6-1.1 3.6zM184.6 221.3c.3 1 .9 1.5 1.2 1.2.3-.3 0-1.1-.7-1.8-1-.9-1.1-.8-.5.6zM224.5 222c-.3.5-.1 1 .4 1 .6 0 1.1-.5 1.1-1 0-.6-.2-1-.4-1-.3 0-.8.4-1.1 1zM233.5 222c-.3.5.1 1 .9 1 .9 0 1.6-.5 1.6-1 0-.6-.4-1-.9-1-.6 0-1.3.4-1.6 1zM167.6 227.5c-.3.9 0 1.5.9 1.5.8 0 1.5-.7 1.5-1.5s-.4-1.5-.9-1.5-1.1.7-1.5 1.5zM202.6 227.8c-.3.6-.1 1.4.5 1.7 1.5 1 2.5-.3 1.2-1.6-.7-.7-1.3-.7-1.7-.1zM185 229c0 .6.7 1 1.5 1s1.5-.2 1.5-.4-.7-.6-1.5-1c-.8-.3-1.5-.1-1.5.4zM206.5 229c-.3.5-.1 1 .4 1 .6 0 1.1-.5 1.1-1 0-.6-.2-1-.4-1-.3 0-.8.4-1.1 1zM220 228c-.1.3-.3 1.8-.5 3.4-.4 2.7-.3 2.8 1.2 1.4 1.2-1.2 1.3-2 .4-3.4-.6-1.1-1.1-1.7-1.1-1.4zM209.1 230.7c-.1 1.6.5 2.3 1.7 2.3 1 0 1.3-.3.6-.8-.6-.4-1.4-1.4-1.7-2.2-.4-1-.6-.8-.6.7zM276.2 232.9c-1.3 3.7-.7 5.7.9 2.8.6-.9 1.4-1.5 2-1.2.5.4.9.1.9-.4 0-.6-.4-1.1-.9-1.1s-1.1-.8-1.3-1.8c-.3-1.2-.8-.6-1.6 1.7zM202 235.2c0 2.3.2 3.9.5 3.7.4-.5 1.2-3.8 1.4-6.1.1-.4 1-.5 2.1-.3s2 0 2-.6c0-.5-1.3-.9-3-.9-2.9 0-3 .2-3 4.2z"/><path d="M232.4 232.1c-.3.6-1.5.8-2.7.5-1.5-.4-1.7-.2-.9.6 1.6 1.6 5 2 5.7.8.3-.6.1-1-.5-1s-.8-.5-.5-1c.3-.6.4-1 .1-1-.3 0-.8.5-1.2 1.1zM270 232c0 .5.5 1 1 1 .6 0 1-.5 1-1 0-.6-.4-1-1-1-.5 0-1 .4-1 1zM167 235c0 .5.4 1 .9 1 .6 0 1.3-.5 1.6-1 .3-.6-.1-1-.9-1-.9 0-1.6.4-1.6 1zM171.1 235.4c-.7.8-.8 1.7-.3 2 .6.3 1.2-.3 1.5-1.4.6-2.4.4-2.5-1.2-.6zM182 234.9c0 .5 1.8.9 4.1.9 2.3.1 3.8-.2 3.5-.5-1-1.1-7.6-1.4-7.6-.4zM206.1 236.3c-1.1 1.4-.5 2.7 1.1 2.7.5 0 .6-.5.2-1.1-.3-.6 0-1.5.7-2 .8-.5.9-.9.3-.9-.6 0-1.7.6-2.3 1.3zM254 238.6c-.6 1.4-1 2.6-1 2.8 0 .1 1 .2 2.3.3 1.2 0 1.6-.1 1-.4-.8-.3-1.1-1.4-.7-2.9.8-3.2-.4-3.1-1.6.2zM175.8 237.7c.7.3 1.6.2 1.9-.1.4-.3-.2-.6-1.3-.5-1.1 0-1.4.3-.6.6zM172.5 240c.3.5.8 1 1.1 1 .2 0 .4-.5.4-1 0-.6-.5-1-1.1-1-.5 0-.7.4-.4 1zM273.7 240.7c-.4.3-.7 1.1-.7 1.7 0 .6.5.5 1.2-.2.6-.6.9-1.4.7-1.7-.3-.3-.9-.2-1.2.2zM175.3 243.3c0 1.6.5 2.2 2.3 2.2 1.3 0 2.4-.3 2.4-.6 0-.4-1.1-1.4-2.4-2.2-2.2-1.5-2.3-1.5-2.3.6zM181.8 243.3c1.4.6 2.6.7 3.2.1.5-.5-.4-.9-2.3-1-3-.1-3-.1-.9.9zM217.5 244c-.3.5-.2 1 .4 1 .5 0 1.3-.5 1.6-1 .3-.6.2-1-.4-1-.5 0-1.3.4-1.6 1zM263.5 245c1 1.1 2 2 2.3 2 .3 0-.3-.9-1.3-2s-2-2-2.3-2c-.3 0 .3.9 1.3 2zM173.1 245.2c-.1 1-.7 1.8-1.3 1.9-.7 0-.4.4.7.8 2.6 1.1 2.7.9 1.6-2-.7-1.7-1-1.9-1-.7zM189.8 244.7c.7.3 1.6.2 1.9-.1.4-.3-.2-.6-1.3-.5-1.1 0-1.4.3-.6.6zM273 245.1c0 .5.5.7 1 .4.6-.3 1-.8 1-1.1 0-.2-.4-.4-1-.4-.5 0-1 .5-1 1.1zM241.5 246.1c-.4.6-.5 1.2-.2 1.5.2.3.7-.2 1-1.1.7-1.7.1-2-.8-.4zM202 251.5c0 .8.4 1.5 1 1.5.5 0 .7-.7.4-1.5-.4-.8-.8-1.5-1-1.5-.2 0-.4.7-.4 1.5zM264.6 251.5c-.5 1.3-1.3 1.5-3.4 1.1-2-.5-2.3-.4-1.2.4 1.1.7 1.1 1 .2 1-.7 0-1 .5-.6 1.2s.3.8-.4.4-1.2-1.3-1.2-2.1c0-1.8-2.6-2.6-3.8-1.2-1 1.2-1.6 5.4-1.4 9.6.2 2.4.3 2.4 2.8-1 1.4-1.9 2.9-3.3 3.4-3.2.5.2 1.2-.6 1.5-1.7.4-1.3 1.5-2 3-2 2.7 0 4.2-1.7 2.7-3.2-.6-.6-1.2-.4-1.6.7zM180.5 252c.3.6-.1 1-.9 1s-1.8.5-2.2 1.2c-.5.8-.2.9.9.5 1-.3 1.7-.2 1.7.4 0 .6.7.4 1.5-.5 1.9-1.8 1.9-2.2-.1-3-.8-.3-1.2-.2-.9.4zM279.5 252c.3.5.8 1 1.1 1 .2 0 .4-.5.4-1 0-.6-.5-1-1.1-1-.5 0-.7.4-.4 1zM246.3 252.6c.4.6 0 2-.8 3-1.8 2.3-1.9 4.7-.3 4.2 1.8-.6 3-6 1.6-7.3-.7-.7-.9-.7-.5.1zM286.6 253.5c-.4 1-.2 1.4.5.9.6-.4 1.5 0 2.1.7.7 1.1.8 1 .6-.5-.4-2.5-2.4-3.2-3.2-1.1zM276 256.1c0 .5.5.7 1 .4.6-.3 1-.8 1-1.1 0-.2-.4-.4-1-.4-.5 0-1 .5-1 1.1zM237 257.2c0 .9.5 2 1 2.3 1.3.8 1.3-.5 0-2.5-.8-1.3-1-1.3-1 .2zM281.3 262.7c1 2.3 1.2 2.4 2.4.7 1.8-2.5 1.7-2.9-1.1-3-2.3-.2-2.4 0-1.3 2.3zM294 262.5c1.6 1.9.5 6.6-1.4 5.9-.8-.3-1.7-.1-2.1.5-.3.7.2 1.1 1.4 1.1s2.1.4 2.1 1c0 .5.4 1 .9 1 1 0 2.1-6.8 1.4-8.7-.3-.6-1.2-1.4-2-1.7-1.3-.5-1.4-.4-.3.9zM247.5 265.1c-.4.6-.5 1.2-.2 1.5.2.3.7-.2 1-1.1.7-1.7.1-2-.8-.4zM274.4 268.5c-.3 1.9-1 3.2-1.5 2.9-.5-.3-.6.2-.3 1 1 2.6 2 1.8 3.2-2.3 1.4-4.7 1.5-5.1.2-5.1-.5 0-1.2 1.6-1.6 3.5zM287 267c-.9 1.6-.8 1.8.5 1.4.8-.4 1.5-1.2 1.5-2 0-2-.7-1.7-2 .6zM283 267c0 .5.5 1 1 1 .6 0 1-.5 1-1 0-.6-.4-1-1-1-.5 0-1 .4-1 1zM242.6 269.7c.6.4 1.4 1.5 1.7 2.3.5 1.1.6.9.4-.4-.1-1.1-.9-2.1-1.7-2.3-1-.3-1.1-.2-.4.4zM283.5 270.1c-.4.6-.5 1.2-.2 1.5.2.3.7-.2 1-1.1.7-1.7.1-2-.8-.4zM291.1 272.6c0 1.1.3 1.4.6.6.3-.7.2-1.6-.1-1.9-.3-.4-.6.2-.5 1.3zM286.5 273c.4.6 1.1.8 1.6.5 1.4-.9 1.1-1.5-.7-1.5-.8 0-1.2.5-.9 1zM283.2 276.7c-.6.2-.9 1-.5 1.5.4.7-.2.9-1.5.6-1.2-.4-2.2-.2-2.2.3s.5.9 1.1.9c.5 0 .7.6.3 1.2-.4.7.2.5 1.3-.5 1.1-.9 2.3-1.4 2.7-1 .4.4.4 0 .1-.9-.4-1.1 0-1.8 1.2-2.1 1.1-.3 1.2-.5.3-.5-.8 0-2.1.2-2.8.5zM224.8 282.7c.7.3 1.6.2 1.9-.1.4-.3-.2-.6-1.3-.5-1.1 0-1.4.3-.6.6zM280 285c.6 1.1 1.9 2.4 2.9 3 1.8.9 1.9.8.4-2-.8-1.7-2.1-3-2.9-3-1.2 0-1.2.4-.4 2zM286 283.8c0 .5.7.9 1.5.9s1.2-.4.9-.9c-.3-.4-.9-.8-1.5-.8-.5 0-.9.4-.9.8zM290 286.7c.5.2.8.9.4 1.4-.3.5 0 .9.6.9 1.5 0 .7-2.3-.8-2.6-.7-.1-.8 0-.2.3zM295.6 289.9c.4 3 .1 4.7-.8 5.2-.9.6-.9.9-.1.9.6 0 1.8-1.4 2.7-3 .8-1.7 1.1-3 .7-3-.4 0-1.3-1-1.9-2.3-1-1.9-1.1-1.5-.6 2.2zM290.9 296.7c-1.3 1.6-1.2 1.7.4.4 1.6-1.3 2.1-2.1 1.3-2.1-.2 0-1 .8-1.7 1.7zM118.5 350.7c-.3 2.1-.8 5-1 6.4-.5 3.5 3.1 24.2 5.5 31.5l1.2 3.4H172l-2-2c-1.1-1.1-2.4-2-3-2-.5 0-1-.6-1-1.3 0-.6-2.2-2.8-4.8-4.7-2.6-1.9-4.9-3.7-5.2-4-1.1-1.1-12.8-7.8-18-10.3-3-1.4-6.4-3.4-7.6-4.4-3.2-2.9-8.4-10.4-8.4-12.3 0-1-.6-2.3-1.4-3-1.2-.9-1.6-.5-2.1 2.7zM258.7 353.7c-.3.5-.8 3-1.2 5.7-.7 4.5-1.5 5.6-10.2 13.9-5.2 5-10.2 9.6-11.1 10.3-.9.6-3.5 2.8-5.6 4.8l-4 3.6h36.2l.7-7.4c.4-4.1.5-9.4.1-11.8-.3-2.4-.6-5.8-.6-7.6.1-1.8-.7-4.8-1.6-6.7-.8-1.9-1.3-3.9-.9-4.4.3-.6.2-1.1-.4-1.1-.5 0-1.2.3-1.4.7zm-3.7 18.7c0 .3-.4.8-1 1.1-.5.3-1 .1-1-.4 0-.6.5-1.1 1-1.1.6 0 1 .2 1 .4z"/></svg>